<svg width="32" height="32" viewBox="0 0 32 32" fill="none" xmlns="http://www.w3.org/2000/svg">
<rect width="32" height="32" fill="white"/>
<path d="M28.611 17.4225C28.611 17.4165 28.61 17.4115 28.608 17.4055C28.568 16.6754 28.4628 16.0284 28.2865 15.4285C28.0862 14.7424 27.8018 14.1566 27.4413 13.6858C27.0937 13.2321 26.645 12.8435 26.1423 12.5641C25.7637 12.3538 25.3661 12.2166 24.9835 12.1625C25.284 11.7128 25.5173 11.2051 25.6776 10.6512C25.985 9.58959 25.986 8.45586 25.6786 7.45934C25.4362 6.67214 25.0045 5.9861 24.4327 5.47632C23.8668 4.97255 23.1988 4.63804 22.5007 4.51085C22.2714 4.46879 22.037 4.44775 21.8037 4.44775C21.6795 4.44775 21.5533 4.45376 21.4301 4.46578C21.0695 4.50083 20.698 4.607 20.3274 4.78327C20.2964 4.79729 20.2663 4.81431 20.2383 4.83134C20.2543 4.85538 20.2703 4.87941 20.2854 4.90445C20.3525 5.01261 20.4156 5.12178 20.4716 5.22995C20.4877 5.25999 20.5017 5.29204 20.5167 5.32309C20.5658 5.31107 20.6169 5.30105 20.6679 5.29304C20.731 5.28403 20.7931 5.27401 20.8552 5.263C20.9664 5.24397 21.0706 5.22594 21.1797 5.21793C21.355 5.20391 21.5102 5.1969 21.6544 5.1969C21.8467 5.1969 22.022 5.20891 22.1903 5.23395C22.2744 5.24697 22.3585 5.26199 22.4416 5.28002C22.4787 5.28803 22.5148 5.29605 22.5488 5.30506L22.5879 5.31508L22.65 5.3331C22.8352 5.38618 22.9855 5.43826 23.1227 5.49535C23.4281 5.62355 23.7166 5.7908 23.98 5.99311C24.2304 6.1854 24.4707 6.42977 24.674 6.69818C24.7241 6.76328 24.7732 6.83439 24.8203 6.9055L24.8293 6.91852C24.8293 6.91852 24.8323 6.92453 24.8343 6.92753L24.8643 6.9746C24.8874 7.01266 24.9104 7.05172 24.9314 7.08978C25.0146 7.237 25.0917 7.39825 25.1608 7.56751C25.1608 7.56751 25.1608 7.56851 25.1608 7.56951C25.1608 7.56951 25.1698 7.59255 25.1708 7.59555C25.1708 7.59555 25.1708 7.59655 25.1718 7.59755L25.1858 7.63561C25.2049 7.68769 25.2229 7.74077 25.2389 7.79385C25.2559 7.84794 25.272 7.90202 25.287 7.9571L25.291 7.97313C25.305 8.0232 25.314 8.05625 25.32 8.07728C25.32 8.0893 25.323 8.09932 25.325 8.10933L25.333 8.14939C25.3521 8.24154 25.3671 8.33368 25.3801 8.42482C25.3861 8.46788 25.3911 8.51095 25.3961 8.549C25.3931 8.56903 25.3961 8.59207 25.4022 8.62512C25.4022 8.62512 25.4022 8.62512 25.4022 8.62612C25.4042 8.65216 25.4062 8.68221 25.4062 8.69222C25.4132 8.8104 25.4162 8.93159 25.4142 9.05277C25.4142 9.0688 25.4142 9.08482 25.4142 9.10085L25.4122 9.1399C25.4032 9.31918 25.3831 9.49945 25.3551 9.67672C25.3551 9.68273 25.3531 9.68874 25.3521 9.69475C25.3471 9.70677 25.3441 9.72079 25.3421 9.73782C25.3411 9.75184 25.3381 9.77287 25.3371 9.78088C25.305 9.94513 25.2649 10.1094 25.2169 10.2706C25.2018 10.3217 25.1868 10.3718 25.1698 10.4219L25.1367 10.519C25.0666 10.7113 24.9845 10.9006 24.8924 11.0809C24.8693 11.1249 24.8463 11.168 24.8223 11.2121C24.8123 11.2291 24.7932 11.2631 24.7872 11.2742C24.7872 11.2742 24.7872 11.2742 24.7862 11.2752C24.7802 11.2842 24.7742 11.2942 24.7682 11.3062L24.7632 11.3152C24.7111 11.4003 24.655 11.4865 24.5959 11.5706C24.4787 11.7369 24.3485 11.8971 24.2093 12.0463C24.1392 12.1214 24.0651 12.1946 23.989 12.2657C23.9259 12.3238 23.9099 12.4189 23.8989 12.481C23.8828 12.5721 23.8818 12.6613 23.8969 12.7374C23.9109 12.8095 23.9269 12.8636 23.9509 12.9117C23.958 12.9267 24.0271 13.0589 24.1372 13.0589C24.1432 13.0589 24.1603 13.0569 24.1663 13.0559C24.3205 13.0208 24.4827 13.0028 24.648 13.0028C24.8413 13.0028 25.0416 13.0278 25.2399 13.0749C25.6836 13.1921 26.1132 13.4154 26.5189 13.7409L26.5479 13.765H26.5489C26.5489 13.765 26.5569 13.774 26.5629 13.779C26.5669 13.783 26.5719 13.786 26.5759 13.789C26.591 13.802 26.607 13.815 26.622 13.8291C26.7592 13.9502 26.8894 14.0824 27.0096 14.2216C27.0857 14.3108 27.1588 14.4039 27.2249 14.4981L27.261 14.5512C27.266 14.5602 27.299 14.6102 27.299 14.6102C27.3361 14.6693 27.3701 14.7284 27.4042 14.7895C27.4913 14.9458 27.5695 15.108 27.6386 15.2733L27.6576 15.3203C27.6836 15.3884 27.7097 15.4565 27.7337 15.5266C27.7798 15.6578 27.8218 15.794 27.8589 15.9333C27.8749 15.9923 27.8899 16.0524 27.905 16.1125C27.905 16.1125 27.905 16.1125 27.905 16.1135C27.908 16.1326 27.912 16.1516 27.918 16.1686C27.927 16.2087 27.938 16.2618 27.943 16.2838C27.9951 16.5432 28.0352 16.8186 28.0652 17.1241L28.0752 17.2543C28.0792 17.3164 28.0832 17.3785 28.0862 17.4416C28.0983 17.6939 28.1003 17.9493 28.0922 18.2007C28.0922 18.2137 28.0882 18.3019 28.0882 18.3019C28.0852 18.37 28.0802 18.4381 28.0752 18.5072C28.0572 18.7495 28.0292 19.0029 27.9911 19.2583C27.9821 19.3184 27.9731 19.3775 27.9631 19.4366C27.9631 19.4366 27.951 19.5037 27.947 19.5307L27.939 19.5728C27.936 19.5878 27.934 19.6018 27.932 19.6119C27.91 19.72 27.8889 19.8282 27.8649 19.9354C27.8088 20.1817 27.7437 20.4311 27.6716 20.6745C27.6346 20.7967 27.5965 20.9189 27.5564 21.04C27.5364 21.1011 27.5154 21.1612 27.4903 21.2303L27.4613 21.3105L27.4403 21.3675C27.3501 21.6079 27.25 21.8493 27.1438 22.0866C26.9385 22.5403 26.6961 22.999 26.4237 23.4487C26.3907 23.5038 26.3566 23.5579 26.3216 23.613L26.2895 23.664L26.2364 23.7462C26.1643 23.8563 26.0912 23.9645 26.0161 24.0727C25.8659 24.287 25.7096 24.4963 25.5514 24.6936C25.2219 25.1052 24.8673 25.4788 24.5318 25.8213L24.4878 25.8674C24.4156 25.9415 24.3415 26.0186 24.2644 26.0867C24.1923 26.1508 24.1693 26.282 24.1633 26.3341C24.1502 26.4353 24.1613 26.5424 24.1913 26.6225C24.2113 26.6746 24.2514 26.7818 24.3475 26.8188C24.3716 26.8279 24.3956 26.8319 24.4187 26.8319C24.4707 26.8319 24.5108 26.8088 24.5418 26.7858C24.5478 26.7818 24.5529 26.7768 24.5589 26.7728L24.7181 26.6386C24.7742 26.5905 24.8293 26.5424 24.8844 26.4934C24.9785 26.4102 25.0726 26.3181 25.1838 26.2059C25.3761 26.0096 25.5684 25.7973 25.7567 25.575C26.1172 25.1473 26.4648 24.6696 26.7873 24.1558C27.4072 23.1703 27.8829 22.0906 28.2034 20.9459C28.5359 19.7571 28.6731 18.5723 28.611 17.4245V17.4225ZM26.62 13.7149L26.622 13.7169C26.622 13.7169 26.622 13.7169 26.62 13.7149Z" fill="#C59E98"/>
<path d="M20.4715 5.22992C20.4154 5.12176 20.3523 5.01259 20.2852 4.90443C20.2702 4.87939 20.2542 4.85635 20.2382 4.83131C20.134 4.67007 20.0228 4.51684 19.9057 4.37562C19.9027 4.36661 19.8976 4.35859 19.8916 4.35158C19.2757 3.61446 18.4394 3.00854 17.4729 2.60092C16.6857 2.26841 15.8194 2.0651 14.9681 2.01302C14.8289 2.00501 14.6887 2 14.5515 2C13.8124 2 13.1103 2.12118 12.4653 2.36055C11.6351 2.66902 10.959 3.19081 10.5103 3.86885C10.4402 3.97501 10.3791 4.07616 10.3231 4.17531C10.295 4.22739 10.275 4.28048 10.2529 4.33856C10.2419 4.36761 10.2309 4.39765 10.2199 4.4277L10.1949 4.49881C10.1909 4.50882 10.1868 4.51884 10.1838 4.52986C10.1448 4.626 10.1518 4.7552 10.2009 4.84534C10.2329 4.90342 10.283 4.93748 10.3391 4.93748C10.3892 4.93748 10.4352 4.90943 10.4673 4.86136C10.4843 4.84233 10.4993 4.8223 10.5153 4.80127L10.5384 4.77122C10.5514 4.7542 10.5654 4.73817 10.5804 4.72015L10.6055 4.6901C10.6205 4.67007 10.6355 4.65004 10.6445 4.63001C10.6956 4.55289 10.7487 4.47377 10.8048 4.39966C10.92 4.24742 11.0512 4.0972 11.1944 3.95398C11.2405 3.90791 11.2875 3.86384 11.3396 3.81677C11.3416 3.81577 11.3827 3.77971 11.3827 3.77971C11.4518 3.72062 11.5279 3.65953 11.608 3.59944C11.7592 3.48526 11.9215 3.3801 12.0897 3.28696C12.3431 3.14775 12.6105 3.03257 12.887 2.94544C12.903 2.94043 12.919 2.93543 12.935 2.93042H12.938C12.938 2.93042 12.9851 2.91539 12.9961 2.91239C13.0452 2.89837 13.0943 2.88535 13.1444 2.87333C13.5149 2.78019 13.9115 2.72511 14.3242 2.70908C14.4093 2.70608 14.4944 2.70407 14.5795 2.70407C14.896 2.70407 15.2195 2.72711 15.542 2.77218C15.7443 2.80022 15.9476 2.83728 16.1449 2.88134L16.198 2.89336C16.198 2.89336 16.2481 2.90538 16.2631 2.90939C16.4123 2.94644 16.5626 2.9875 16.7088 3.03358C17.5511 3.29698 18.3232 3.7076 18.9402 4.22239C19.1625 4.40667 19.3658 4.60497 19.5471 4.80928C19.6413 4.91544 19.7304 5.02561 19.8115 5.13678L19.8335 5.16683L19.8516 5.19287C19.8716 5.22091 19.8906 5.24795 19.9087 5.27699C20.0108 5.43023 20.105 5.59247 20.1861 5.75773C20.2111 5.8088 20.2362 5.86088 20.2592 5.91196L20.2752 5.94802C20.2892 5.98107 20.3023 6.01312 20.3153 6.04717C20.3583 6.15633 20.3974 6.27051 20.4335 6.38568C20.4495 6.43977 20.4655 6.49485 20.4795 6.54993C20.4805 6.55594 20.4825 6.56195 20.4845 6.56896C20.4845 6.57197 20.4855 6.57597 20.4865 6.57998C20.5286 6.75625 20.5607 6.93552 20.5817 7.1158C20.5817 7.12381 20.5837 7.14284 20.5847 7.15986C20.5847 7.16687 20.5857 7.17689 20.5877 7.18791C20.5887 7.21094 20.5907 7.23398 20.5927 7.25801C20.5947 7.28606 20.5977 7.3131 20.5987 7.34114C20.6047 7.45932 20.6057 7.5795 20.6027 7.69868C20.6027 7.7067 20.6027 7.71371 20.6027 7.72172L20.5977 7.81286C20.5937 7.87395 20.5877 7.93605 20.5807 7.99714C20.5737 8.05322 20.5667 8.10931 20.5577 8.16439C20.5516 8.20446 20.5446 8.24452 20.5366 8.28458L20.6197 8.3006L20.5336 8.2986C20.5066 8.4278 20.4785 8.53997 20.4485 8.64112C20.4325 8.6952 20.4154 8.74828 20.3974 8.80136C20.3874 8.83041 20.3774 8.85945 20.3664 8.8885L20.3583 8.91053L20.3473 8.93657C20.3033 9.04574 20.2552 9.1539 20.2031 9.25706C20.154 9.35321 20.0969 9.45436 20.0298 9.56453C20.0288 9.56653 19.9958 9.6146 19.9958 9.6146C19.9818 9.63564 19.9667 9.65667 19.9517 9.6777C19.9157 9.72878 19.8796 9.77785 19.8416 9.82693C19.7074 9.99919 19.5491 10.1654 19.3578 10.3377C19.2637 10.4218 19.2146 10.4629 19.1205 10.541C19.0343 10.6121 18.9472 10.6812 18.8591 10.7503C18.6938 10.8815 18.5055 11.0298 18.3273 11.185C17.9286 11.5335 17.6562 11.8831 17.496 12.2526C17.3888 12.501 17.3197 12.7664 17.2897 13.0418C17.2867 13.0699 17.2847 13.0989 17.2817 13.128C17.2817 13.137 17.2807 13.147 17.2807 13.158C17.2807 13.167 17.2807 13.178 17.2797 13.187C17.2777 13.1921 17.2766 13.1961 17.2756 13.2001L17.2696 13.2161C17.2696 13.2161 17.2646 13.2211 17.2616 13.2251C17.2546 13.2301 17.2456 13.2341 17.2356 13.2381C17.2326 13.2381 17.2216 13.2421 17.2015 13.2441C17.1885 13.2451 17.1755 13.2461 17.1615 13.2461C17.1294 13.2461 17.0954 13.2431 17.0493 13.2351C16.9922 13.2261 16.9361 13.2121 16.878 13.1981C16.823 13.184 16.7669 13.171 16.7098 13.161C16.6597 13.152 16.6066 13.148 16.5535 13.148C16.4864 13.148 16.4203 13.155 16.3572 13.169C16.2391 13.1941 16.1459 13.2441 16.0628 13.3283C16.0318 13.3593 16.0037 13.3964 15.9727 13.4424C15.9546 13.4705 15.9366 13.4985 15.9176 13.5296C15.9106 13.5296 15.9036 13.5306 15.8965 13.5306C15.8825 13.5306 15.8675 13.5296 15.8545 13.5286C15.8264 13.5266 15.7984 13.5216 15.7714 13.5176C15.7403 13.5125 15.7093 13.5075 15.6772 13.5055C15.6612 13.5045 15.6452 13.5035 15.6301 13.5035C15.5039 13.5035 15.3868 13.5496 15.2816 13.6407C15.2335 13.6818 15.1905 13.7289 15.1484 13.7749C15.1043 13.822 15.0633 13.8671 15.0202 13.9011C14.9381 13.9682 14.8429 14.0203 14.7348 14.0574C14.6266 14.0944 14.5094 14.1135 14.3882 14.1135C14.0668 14.1135 13.7262 13.9833 13.4548 13.7569C13.2826 13.6137 13.1183 13.4264 12.936 13.169C12.7678 12.9307 12.6316 12.7003 12.5324 12.485C12.4323 12.2686 12.3922 12.0333 12.4122 11.7839C12.4142 11.7539 12.4032 11.7198 12.3822 11.6978C12.3662 11.6808 12.3391 11.6687 12.3161 11.6687C12.28 11.6687 12.238 11.6928 12.227 11.7459C12.1649 12.0333 12.1799 12.3187 12.271 12.5941C12.3662 12.8836 12.5114 13.162 12.6406 13.3954C12.9891 14.0303 13.4037 14.436 13.8725 14.6002C14.0567 14.6653 14.241 14.6973 14.4223 14.6973C14.5054 14.6973 14.5886 14.6903 14.6677 14.6753C14.9381 14.6272 15.1674 14.5 15.3697 14.2867L15.3958 14.2587C15.4559 14.1936 15.519 14.1265 15.5921 14.1175C15.6031 14.1165 15.6151 14.1155 15.6261 14.1155C15.6662 14.1155 15.7093 14.1235 15.7543 14.1315C15.8044 14.1405 15.8575 14.1505 15.9126 14.1505H15.9326C16.0157 14.1465 16.0868 14.1175 16.1449 14.0624C16.178 14.0323 16.199 13.9973 16.221 13.9592C16.221 13.9582 16.223 13.9572 16.223 13.9552C16.2311 13.9422 16.2391 13.9302 16.2481 13.9172C16.2601 13.8991 16.2731 13.8821 16.2851 13.8681C16.2851 13.8681 16.3092 13.844 16.3142 13.839C16.3362 13.823 16.3583 13.811 16.3833 13.801C16.3833 13.801 16.3843 13.801 16.3853 13.801C16.3913 13.8 16.3963 13.798 16.4043 13.797C16.4264 13.793 16.4494 13.79 16.4724 13.788C16.5025 13.786 16.5325 13.784 16.5636 13.784C16.5876 13.784 16.6116 13.785 16.6357 13.788C16.7068 13.795 16.7759 13.814 16.849 13.834C16.8891 13.8451 16.9291 13.8561 16.9722 13.8651C17.0553 13.8841 17.1204 13.8921 17.1825 13.8921C17.2536 13.8921 17.3177 13.8801 17.3788 13.8571C17.522 13.801 17.6242 13.6568 17.6662 13.4504C17.6813 13.3763 17.6893 13.3022 17.6973 13.2311V13.2211C17.7013 13.1891 17.7063 13.156 17.7113 13.123C17.7133 13.1109 17.7183 13.0749 17.7183 13.0749C17.7193 13.0719 17.7203 13.0679 17.7213 13.0639L17.7233 13.0528C17.7233 13.0528 17.7243 13.0438 17.7243 13.0398C17.7454 12.9397 17.7704 12.8335 17.8095 12.7364L17.8295 12.6883C17.8615 12.6132 17.8976 12.5391 17.9387 12.468C17.9507 12.4469 17.9627 12.4269 17.9787 12.3998C17.9807 12.3968 17.9837 12.3918 17.9867 12.3878L17.9977 12.3708C18.0288 12.3247 18.0608 12.2797 18.0959 12.2366C18.2121 12.0874 18.3573 11.9361 18.5396 11.7759L18.5917 11.7298L18.6357 11.6928C18.6788 11.6567 18.7219 11.6217 18.7659 11.5856C18.839 11.5275 18.9121 11.4694 18.9853 11.4113L19.0353 11.3723C19.3899 11.0939 19.7925 10.7784 20.11 10.3798C20.7499 9.57755 21.0804 8.51693 21.0414 7.39522C21.0163 6.67713 20.8341 5.96504 20.5176 5.32707C20.5026 5.29602 20.4885 5.26498 20.4725 5.23393L20.4715 5.22992ZM17.6352 13.0428C17.6352 13.0428 17.6352 13.0388 17.6372 13.0318C17.6362 13.0388 17.6352 13.0428 17.6352 13.0428Z" fill="#285331"/>
<path d="M17.8656 8.71116C18.142 8.4097 18.3724 8.04515 18.5697 7.59746C18.758 7.17081 18.8631 6.71111 18.8721 6.26844C18.8742 6.16328 18.8661 6.05311 18.8481 5.91991C18.8351 5.82576 18.786 5.72461 18.6899 5.72461C18.6769 5.72461 18.6628 5.72661 18.6498 5.73062C18.5687 5.75666 18.5276 5.84079 18.5276 5.98C18.5276 6.00404 18.5276 6.02807 18.5266 6.05812C18.5266 6.07314 18.5256 6.08716 18.5246 6.10218V6.14825L18.5176 6.25442C18.5126 6.34556 18.5016 6.43669 18.4876 6.53184L18.4856 6.54286L18.4645 6.64501C18.4535 6.69709 18.4405 6.74817 18.4265 6.79825C18.4195 6.82128 18.4134 6.84432 18.4064 6.86835C18.4034 6.87737 18.3924 6.91342 18.3924 6.91342C18.3774 6.95949 18.3604 7.00456 18.3423 7.05063C18.2692 7.23691 18.1951 7.38013 18.0849 7.54538C17.9848 7.69561 17.8636 7.85085 17.7144 8.02111C17.452 8.31956 17.1535 8.56594 16.803 8.77526C16.4304 8.9976 16.0148 9.16986 15.5671 9.28804C15.0012 9.43727 14.3923 9.50938 13.7043 9.50938C13.3978 9.50938 13.0703 9.49435 12.7318 9.46431C12.5135 9.44528 12.2901 9.42024 12.0748 9.39721C11.578 9.34312 11.0653 9.28704 10.5585 9.28704C10.224 9.28704 9.92251 9.31107 9.63607 9.36015C9.11528 9.45029 8.65758 9.62756 8.276 9.88595C7.89041 10.1484 7.57694 10.5079 7.34659 10.9566C7.2925 11.0607 7.24844 11.1729 7.21138 11.2971C7.19035 11.3652 7.19836 11.4523 7.23041 11.5124C7.24944 11.5495 7.2935 11.5926 7.35259 11.5926C7.39165 11.5926 7.42771 11.5725 7.45074 11.5375L7.4908 11.4764C7.59396 11.3191 7.69011 11.1709 7.80929 11.0347C7.93248 10.8935 8.0777 10.7603 8.25397 10.6271C8.58347 10.3767 8.9941 10.1994 9.47483 10.1003C9.77729 10.0382 10.0988 10.0071 10.4573 10.0071C10.9811 10.0071 11.5169 10.0732 12.0347 10.1363C12.202 10.1574 12.3692 10.1774 12.5355 10.1954C12.9842 10.2445 13.3878 10.2695 13.7704 10.2695C14.3923 10.2695 14.9502 10.2064 15.477 10.0752C15.9888 9.94805 16.4495 9.76777 16.8451 9.53842C17.2186 9.32209 17.5622 9.04467 17.8656 8.71316V8.71116Z" fill="#285331"/>
<path d="M4.18485 14.601C4.18485 14.601 4.18785 14.601 4.18885 14.601C4.26897 14.599 4.32706 14.5389 4.35711 14.4798C4.35811 14.4778 4.35911 14.4758 4.36011 14.4738C4.42421 14.3396 4.4202 14.1743 4.3511 14.0301C4.0236 13.3531 3.81328 12.8133 3.66906 12.2815C3.65103 12.2133 3.632 12.1452 3.61698 12.0791L3.59895 11.998C3.58994 11.959 3.58193 11.9199 3.57392 11.8808C3.52784 11.6545 3.49279 11.4221 3.47076 11.1998C3.47076 11.1978 3.47076 11.1908 3.47076 11.1898C3.46976 11.1728 3.46775 11.1547 3.46575 11.1287C3.46275 11.0896 3.46074 11.0496 3.45874 11.0105C3.44973 10.8523 3.44772 10.692 3.45273 10.5318C3.45273 10.5248 3.45373 10.4927 3.45373 10.4927L3.45974 10.3876C3.46475 10.3205 3.47076 10.2534 3.47777 10.1863C3.48478 10.1242 3.49279 10.0631 3.50181 10.001C3.50481 9.97794 3.51683 9.90383 3.51683 9.90383L3.52584 9.85576C3.55188 9.72055 3.58293 9.58835 3.61898 9.46116C3.63601 9.40207 3.65304 9.34197 3.67206 9.28388L3.68909 9.23181C3.70011 9.19976 3.71213 9.16871 3.72314 9.13766C3.77021 9.01347 3.82129 8.89129 3.87638 8.77411C3.90342 8.71602 3.93246 8.65793 3.96251 8.60185C3.97553 8.57681 4.01859 8.49869 4.01859 8.49869C4.0216 8.49368 4.04163 8.45963 4.04163 8.45963C4.17683 8.23228 4.33007 8.01996 4.49933 7.82967C4.55942 7.76257 4.62251 7.69546 4.6826 7.63738C4.68461 7.63537 4.68861 7.63237 4.69062 7.63036C4.69062 7.63036 4.68861 7.63137 4.68861 7.63237C4.68962 7.63237 4.69162 7.63036 4.69162 7.63036C4.69462 7.62836 4.7467 7.57929 4.7467 7.57929C4.84285 7.49115 4.942 7.40903 5.04215 7.33592C5.26149 7.17367 5.50886 7.03045 5.77727 6.91027C6.23998 6.70395 6.7828 6.56073 7.4368 6.4736C7.99365 6.39949 8.56752 6.37846 9.12137 6.35743C9.84848 6.33038 10.5996 6.30134 11.3307 6.15612C12.2331 5.97684 13.45 5.54118 14.125 4.49058C14.161 4.43449 14.1941 4.37741 14.2282 4.31932C14.2652 4.25422 14.2912 4.18411 14.3173 4.11701L14.3273 4.08897C14.3533 4.01986 14.3533 3.93674 14.3273 3.87064C14.3023 3.80754 14.2582 3.77148 14.2061 3.77148C14.1821 3.77148 14.147 3.7795 14.114 3.81755C14.099 3.83558 14.0829 3.85161 14.0679 3.86863C14.0419 3.89567 14.0168 3.92271 13.9948 3.95276C13.9627 3.99482 13.9267 4.03989 13.8796 4.09297C13.7895 4.19413 13.7074 4.27826 13.6272 4.35037C13.454 4.50861 13.2497 4.65683 13.0213 4.79204C12.5816 5.05244 12.0939 5.24373 11.5701 5.35991C10.7809 5.53617 9.95664 5.56321 9.15943 5.58825C8.65666 5.60428 8.13687 5.6213 7.62809 5.67539C6.94605 5.7475 6.36417 5.8787 5.84838 6.076C5.27651 6.29533 4.77975 6.61682 4.37313 7.03145C3.61097 7.80363 3.13324 8.90931 3.02408 10.1402C2.91491 11.3771 3.17731 12.6971 3.80427 14.0632C3.87537 14.2174 3.94348 14.3546 4.01158 14.4808C4.04263 14.5379 4.10472 14.6 4.18485 14.6V14.601Z" fill="#285331"/>
<path d="M22.9323 27.2432C22.9053 27.2432 22.8792 27.2512 22.8552 27.2683C22.8542 27.2683 22.8532 27.2693 22.8522 27.2703C22.3715 27.5917 21.8166 27.8942 21.2027 28.1676C20.6478 28.415 20.0549 28.6203 19.439 28.7766C18.8311 28.9308 18.2061 29.04 17.5822 29.1C17.1285 29.1431 16.6878 29.1651 16.2712 29.1651C16.0749 29.1651 15.8796 29.1601 15.6903 29.1511C15.0163 29.1171 14.4013 29.043 13.8094 28.9238C13.7373 28.9088 13.6652 28.8937 13.5941 28.8777C12.9381 28.7285 12.2901 28.5212 11.6692 28.2628C11.0823 28.0184 10.5114 27.727 9.96957 27.3944C9.67312 27.2122 9.37967 27.0149 9.09924 26.8086C8.32306 26.2287 7.624 25.5627 7.02208 24.8315C6.91291 24.6983 6.80475 24.5611 6.70059 24.4229L6.68156 24.3979C6.67054 24.3829 6.65953 24.3668 6.65051 24.3558L6.62848 24.3258C6.48826 24.1325 6.35406 23.9332 6.22687 23.7339C5.97448 23.3373 5.74613 22.9196 5.54783 22.494C5.52379 22.4439 5.50176 22.3928 5.47873 22.3407C5.47873 22.3387 5.4637 22.3067 5.4637 22.3057C5.45369 22.2817 5.44267 22.2576 5.43266 22.2326C5.38659 22.1224 5.34152 22.0132 5.29845 21.9021C5.21532 21.6867 5.13921 21.4654 5.0701 21.2451C5.03505 21.1319 5.002 21.0177 4.97095 20.9036C4.96594 20.8855 4.94692 20.8214 4.94291 20.8074C4.94091 20.7914 4.9359 20.7714 4.92789 20.7423L4.90385 20.6422C4.84977 20.4128 4.8027 20.1785 4.76564 19.9451C4.74861 19.8369 4.73259 19.7248 4.71757 19.6016C4.71056 19.5455 4.70455 19.4904 4.69854 19.4343C4.69854 19.4343 4.69253 19.3742 4.69153 19.3512C4.6715 19.1108 4.66048 18.8705 4.65948 18.6381C4.65948 18.5179 4.66048 18.3987 4.66449 18.2766V18.2685C4.66449 18.2575 4.66549 18.2455 4.66649 18.2315C4.66949 18.1764 4.6735 18.1203 4.67951 18.0652C4.68852 17.9651 4.70054 17.8619 4.71556 17.7568C4.72257 17.7047 4.73159 17.6526 4.7406 17.6005L4.75162 17.5404C4.75162 17.5404 4.75262 17.5354 4.75362 17.5314C4.75362 17.5314 4.75362 17.5304 4.75362 17.5294C4.79869 17.3161 4.85377 17.1098 4.91887 16.9175C4.93289 16.8754 4.94792 16.8344 4.96294 16.7933L4.88282 16.7642L4.96795 16.7813C4.97796 16.7542 4.98898 16.7282 5 16.7022C5.04006 16.606 5.08312 16.5119 5.12719 16.4237C5.17526 16.3276 5.22534 16.2354 5.27642 16.1483C5.28944 16.1263 5.30246 16.1042 5.31748 16.0812L5.32449 16.0692C5.35353 16.0261 5.38158 15.9821 5.41263 15.94C5.53281 15.7707 5.66601 15.6125 5.80823 15.4693C5.86532 15.4122 5.92741 15.3541 6.00353 15.288C6.20083 15.1237 6.41816 14.9795 6.64851 14.8593C6.96599 14.6931 7.23841 14.5789 7.50281 14.5008C7.73416 14.4387 7.96451 14.4067 8.18785 14.4067C8.3511 14.4067 8.51235 14.4237 8.66658 14.4567C8.96504 14.5298 9.25748 14.647 9.53691 14.8043C9.66511 14.8764 9.7933 14.9615 9.93051 15.0637C9.93652 15.0677 9.94754 15.0767 9.95355 15.0817C9.96857 15.0937 9.98359 15.1057 9.99861 15.1187C10.0287 15.1438 10.0577 15.1688 10.0867 15.1949C10.265 15.3521 10.4273 15.5294 10.5675 15.7207L10.5865 15.7467L10.6075 15.7777C10.6306 15.8118 10.6536 15.8479 10.6746 15.8829C10.7197 15.956 10.7618 16.0321 10.8018 16.1092C10.8219 16.1473 10.8409 16.1864 10.8589 16.2254C10.8679 16.2445 10.877 16.2645 10.886 16.2855C10.886 16.2855 10.896 16.3096 10.896 16.3106C10.909 16.3466 10.923 16.3817 10.937 16.4177C10.9541 16.4598 10.9711 16.5018 10.9861 16.5449C11.0152 16.628 11.0422 16.7142 11.0672 16.8023C11.0793 16.8444 11.0903 16.8864 11.1013 16.9285L11.1193 17.0046C11.1574 17.1729 11.1874 17.3471 11.2135 17.5354C11.2255 17.6256 11.2355 17.7167 11.2445 17.8068C11.2465 17.8259 11.2475 17.8449 11.2495 17.8649C11.2535 17.912 11.2565 17.9601 11.2595 18.0081C11.2856 18.3917 11.2886 18.7713 11.2896 19.1589V19.2881C11.2906 20.0763 11.2926 20.8905 11.4488 21.6807C11.581 22.3488 11.8194 22.9807 12.1579 23.5586C12.4884 24.1245 12.898 24.6212 13.3738 25.0369C13.8685 25.4685 14.4093 25.807 14.9812 26.0414C15.5761 26.2858 16.2411 26.431 16.9031 26.461C16.9893 26.465 17.0754 26.467 17.1615 26.467C17.7364 26.467 18.3183 26.3809 18.8912 26.2116C19.2117 26.1175 19.5261 25.9943 19.8256 25.8471C20.0019 25.76 20.1411 25.6828 20.2713 25.5997C20.4135 25.5086 20.5597 25.4154 20.6899 25.3033L20.7861 25.2211C20.8782 25.143 20.9723 25.0629 21.0625 24.9778C21.1466 24.8976 21.1356 24.7464 21.1176 24.6783C21.1136 24.6613 21.0705 24.507 20.9543 24.507C20.9263 24.507 20.8992 24.5171 20.8752 24.5351C20.5878 24.7594 20.2542 24.9698 19.8536 25.1771C19.4911 25.3644 19.1125 25.5116 18.7279 25.6127C18.2432 25.7409 17.7444 25.806 17.2447 25.806C16.9302 25.806 16.6167 25.78 16.3112 25.7279C15.5811 25.6047 14.859 25.3003 14.166 24.8225C14.0818 24.7644 14.0017 24.7033 13.9306 24.6473L13.8515 24.5832C13.8104 24.5491 13.7694 24.5141 13.7293 24.479C13.5841 24.3518 13.4439 24.2166 13.3127 24.0764C13.1875 23.9432 13.0603 23.794 12.9361 23.6347C12.873 23.5536 12.8099 23.4695 12.7508 23.3843C12.7087 23.3232 12.6687 23.2611 12.6286 23.1991C12.5265 23.0378 12.4323 22.8686 12.3462 22.6973C12.3051 22.6142 12.2641 22.526 12.225 22.4369L12.19 22.3528C12.1008 22.1304 12.0267 21.9011 11.9666 21.6627C11.9666 21.6627 11.9536 21.6076 11.9506 21.5896C11.9376 21.5295 11.9256 21.4694 11.9145 21.4083C11.8925 21.2881 11.8735 21.165 11.8574 21.0328C11.8504 20.9737 11.8434 20.9136 11.8374 20.8545C11.8374 20.8385 11.8364 20.8224 11.8334 20.8084L11.8264 20.7193C11.8174 20.5921 11.8104 20.4649 11.8054 20.3387C11.7944 20.0673 11.7933 19.7939 11.7933 19.5595V19.3201C11.7944 18.9105 11.7954 18.4859 11.7723 18.0682C11.7032 16.8474 11.4588 15.946 11.0031 15.2299C10.5214 14.4728 9.79731 13.9059 8.96604 13.6325C8.6766 13.5373 8.38415 13.4893 8.09471 13.4893C7.90342 13.4893 7.71113 13.5103 7.52284 13.5524C7.07916 13.6515 6.61946 13.8358 6.19482 14.0872C5.50977 14.4918 4.95192 15.1237 4.58136 15.916C4.23884 16.6491 4.05656 17.5074 4.03953 18.4698C4.02351 19.3772 4.14069 20.3086 4.38706 21.2381C4.6084 22.0713 4.94591 22.9036 5.38859 23.7128C5.81324 24.487 6.32902 25.2211 6.92193 25.8922C7.50481 26.5522 8.18285 27.1641 8.937 27.7099C9.67512 28.2437 10.4663 28.6924 11.2896 29.042C12.1699 29.4165 13.0983 29.6869 14.0488 29.8442C14.6657 29.9463 15.2987 29.9984 15.9297 29.9984C16.1921 29.9984 16.4595 29.9894 16.7229 29.9714C17.6042 29.9123 18.5066 29.747 19.4059 29.4796C20.2653 29.2242 21.1015 28.8797 21.8927 28.4571C22.2303 28.2768 22.5858 28.0595 23.0104 27.775C23.1096 27.7089 23.1326 27.5657 23.1106 27.4525C23.1066 27.4315 23.0645 27.2452 22.9323 27.2452V27.2432Z" fill="#285331"/>
<path d="M24.2533 18.7305C24.2533 18.7305 24.2533 18.7349 24.2522 18.7371C24.2522 18.7349 24.2544 18.7327 24.2544 18.7305H24.2533Z" fill="white"/>
<path d="M24.8512 17.3163C24.8512 17.3163 24.8502 17.3073 24.8482 17.3033C24.7641 16.5501 24.4657 15.82 24.009 15.2462C23.5382 14.6553 22.8662 14.2206 22.1161 14.0243C21.7806 13.9362 21.44 13.8921 21.1025 13.8921C21.0174 13.8921 20.9313 13.8951 20.8471 13.9001C20.4275 13.9281 20.0059 14.0183 19.5932 14.1685C19.1646 14.3247 18.781 14.5301 18.4525 14.7784C18.2552 14.9277 18.0899 15.0879 17.9597 15.2542C17.8376 15.4104 17.7264 15.5877 17.6192 15.798C17.469 16.0934 17.3558 16.4089 17.2467 16.7134C17.2216 16.7815 17.1976 16.8506 17.1725 16.9187C17.1125 17.085 17.0383 17.2793 16.9532 17.4675C16.9121 17.5577 16.8681 17.6458 16.821 17.7309C16.81 17.75 16.799 17.77 16.784 17.796C16.784 17.796 16.7609 17.8331 16.7609 17.8341C16.7349 17.8762 16.7078 17.9162 16.6798 17.9573C16.6297 18.0294 16.5736 18.0955 16.5135 18.1666C16.4354 18.2597 16.3543 18.3559 16.2882 18.4641C16.2391 18.5452 16.1991 18.6233 16.167 18.6994C16.1149 18.6163 16.0588 18.5342 15.9998 18.455C15.6372 17.9663 15.1384 17.5777 14.6998 17.2612C14.4113 17.0529 14.1419 16.9017 13.8775 16.7985C13.7403 16.7454 13.5811 16.7074 13.4038 16.6863C13.3537 16.6803 13.2996 16.6753 13.2426 16.6753C13.2175 16.6753 13.1925 16.6763 13.1674 16.6783L13.1494 16.6803C13.1154 16.6833 13.0773 16.6863 13.0382 16.6984C13.0062 16.7084 12.9731 16.7224 12.9411 16.7354L12.908 16.7494C12.8329 16.7795 12.8109 16.8746 12.8149 16.9538C12.8199 17.0479 12.859 17.112 12.9201 17.131C12.9581 17.142 12.9952 17.1551 13.0312 17.1691C13.0623 17.1811 13.0943 17.1871 13.1224 17.1931C13.1374 17.1961 13.1524 17.1991 13.1664 17.2031C13.1985 17.2111 13.2295 17.2192 13.2616 17.2262C13.3097 17.2372 13.3577 17.2492 13.4058 17.2632C13.5681 17.3143 13.7233 17.3864 13.8545 17.4505C14.171 17.6057 14.4594 17.8131 14.6988 17.9963C14.9261 18.1706 15.2206 18.404 15.476 18.6734C15.5941 18.7986 15.7013 18.9278 15.7924 19.058L15.8115 19.086L15.8415 19.1321C15.8646 19.1671 15.8866 19.2032 15.9076 19.2392C15.9487 19.3093 15.9877 19.3815 16.0228 19.4536C16.0398 19.4886 16.0568 19.5247 16.0739 19.5627C16.0809 19.5778 16.0869 19.5928 16.0969 19.6158C16.0969 19.6168 16.1039 19.6308 16.1049 19.6328C16.134 19.708 16.162 19.7861 16.186 19.8642C16.1981 19.9022 16.2091 19.9393 16.2191 19.9774C16.2241 19.9944 16.2281 20.0114 16.2331 20.0304L16.2421 20.0665C16.2441 20.0755 16.2471 20.0845 16.2511 20.0915C16.2501 20.0975 16.2491 20.1026 16.2481 20.1086C16.2261 20.2578 16.2481 20.415 16.3112 20.5432C16.3142 20.6013 16.3162 20.6604 16.3162 20.7185C16.3162 20.7535 16.3162 20.7896 16.3142 20.8337C16.3132 20.8577 16.3112 20.8807 16.3092 20.9058C16.3022 20.9829 16.2932 21.064 16.2792 21.1532L16.2702 21.2092C16.2612 21.2373 16.2561 21.2673 16.2521 21.2924C16.2491 21.3074 16.2471 21.3224 16.2441 21.3364C16.2261 21.4156 16.2031 21.4957 16.178 21.5758C16.134 21.715 16.0749 21.8582 15.9978 22.0135L15.9897 22.0295C15.9557 22.0976 15.9216 22.1657 15.8856 22.2318C15.8656 22.2669 15.8455 22.3019 15.8235 22.337C15.8235 22.337 15.7914 22.388 15.7904 22.391L15.7374 22.4702C15.7374 22.4702 15.6973 22.5323 15.6963 22.5343L15.7684 22.5803L15.6913 22.5433C15.6733 22.5713 15.6492 22.6024 15.6252 22.6324C15.5731 22.6965 15.529 22.7636 15.489 22.8297C15.4169 22.7706 15.3438 22.7115 15.2716 22.6534L15.1394 22.5463C14.9882 22.4221 14.831 22.3029 14.6777 22.1857C14.7999 22.0014 14.9441 21.7691 15.0563 21.5217C15.2005 21.2012 15.2466 20.9048 15.1915 20.6424C15.1324 20.3599 14.9782 20.1376 14.7559 20.0154C14.6537 19.9593 14.5405 19.9293 14.4284 19.9293C14.3052 19.9293 14.186 19.9643 14.0828 20.0314C13.9637 20.1086 13.8705 20.2147 13.8094 20.3439C13.7263 20.2948 13.6332 20.2678 13.539 20.2648C13.539 20.2648 13.528 20.2648 13.527 20.2648C13.3167 20.2648 13.1154 20.409 13.0252 20.6233C12.854 21.032 13.0302 21.4606 13.551 21.8973C13.6432 21.9744 13.7403 22.0495 13.8335 22.1206C13.9066 22.1767 13.9797 22.2328 14.0518 22.2919C14.1399 22.363 14.2251 22.4361 14.3112 22.5092C14.4123 22.5964 14.5175 22.6865 14.6247 22.7706C14.8079 22.9158 14.9892 23.0671 15.1655 23.2133C15.3327 23.3525 15.505 23.4957 15.6642 23.653C15.7484 23.7351 15.8255 23.8232 15.9096 23.9214C15.9727 23.9945 16.0408 24.0626 16.1019 24.1247C16.2872 24.341 16.4675 24.5724 16.6518 24.8308C16.7038 24.9039 16.7549 24.978 16.803 25.0531C16.843 25.1162 16.9041 25.1543 16.9642 25.1543C17.0113 25.1543 17.0544 25.1312 17.0864 25.0912C17.3688 24.7276 17.6933 24.4472 18.0499 24.2579C18.2642 24.1437 18.4565 24.0696 18.6388 24.0315C18.8411 23.9885 19.0464 23.9664 19.2487 23.9664H19.2768C19.3328 23.9664 19.3889 23.9745 19.449 23.9825C19.5091 23.9905 19.5702 23.9985 19.6343 23.9995C19.6834 23.9995 19.7244 24.0075 19.7745 24.0235C19.8166 24.0376 19.8556 24.0436 19.8947 24.0496C19.9117 24.0526 19.9287 24.0546 19.9478 24.0586C19.9528 24.0586 19.9588 24.0596 19.9628 24.0596C19.9958 24.0596 20.0299 24.0376 20.0439 24.0075C20.0599 23.9725 20.0539 23.9224 20.0309 23.8953L20.0179 23.8793C19.9808 23.8332 19.9428 23.7872 19.8927 23.7471C19.8646 23.7261 19.8366 23.706 19.8076 23.686C19.7835 23.669 19.7585 23.653 19.7355 23.6349C19.6233 23.5488 19.5011 23.5027 19.3959 23.4697C19.2247 23.4156 19.0444 23.3876 18.8751 23.3876C18.804 23.3876 18.7339 23.3926 18.6668 23.4026C18.4204 23.4386 18.1831 23.5128 17.9808 23.6159C17.7785 23.7191 17.5812 23.8543 17.3779 24.0285C17.2447 24.1417 17.1115 24.2749 16.9722 24.4322C16.821 24.2038 16.6497 23.9795 16.4524 23.7491C16.3423 23.6199 16.2231 23.4877 16.0879 23.3455C16.0568 23.3134 16.0258 23.2814 15.9947 23.2493C15.9637 23.2173 15.9317 23.1853 15.9006 23.1522C15.9186 23.1332 15.9377 23.1121 15.9597 23.0901C16.0629 22.9859 16.142 22.8618 16.2181 22.7416L16.2281 22.7246C16.3783 22.4882 16.4985 22.2208 16.5967 21.9063C16.6387 21.7731 16.6718 21.6369 16.6988 21.4987C16.819 21.8342 17.0764 22.1276 17.4199 22.3109C17.8516 22.5403 18.3493 22.5793 18.8221 22.6004C18.9503 22.6054 19.0634 22.6084 19.1666 22.6084C19.3168 22.6084 19.452 22.6034 19.5822 22.5913L19.6413 22.5863C19.7425 22.5773 19.8466 22.5673 19.9488 22.5673C20.0509 22.5673 20.1391 22.5773 20.2172 22.5974C20.2402 22.6034 20.2633 22.6114 20.2853 22.6194C20.3133 22.6294 20.3414 22.6384 20.3694 22.6454C20.3985 22.6524 20.4325 22.6665 20.4696 22.6855C20.5347 22.7185 20.5958 22.7496 20.6408 22.7977C20.6629 22.8217 20.6909 22.8347 20.722 22.8347C20.764 22.8347 20.8031 22.8097 20.8261 22.7676C20.8431 22.7366 20.8491 22.6985 20.8451 22.6554C20.8431 22.6394 20.8401 22.6234 20.8361 22.6114C20.76 22.369 20.5968 22.1657 20.3995 22.0686C20.1681 21.9544 19.9197 21.9353 19.6854 21.9313C19.5432 21.9293 19.3989 21.9223 19.2587 21.9153C19.1626 21.9103 19.0654 21.9063 18.9693 21.9033C18.7049 21.8943 18.4835 21.8833 18.2622 21.8552C18.0649 21.8302 17.8556 21.7971 17.6593 21.719C17.5671 21.682 17.482 21.6379 17.4059 21.5888C17.3438 21.5478 17.2847 21.4977 17.2256 21.4346C17.1976 21.4045 17.1735 21.3755 17.1555 21.3525C17.1555 21.3525 17.1355 21.3234 17.1315 21.3174C17.1185 21.2964 17.1064 21.2753 17.0954 21.2523L17.0854 21.2323C17.0784 21.2132 17.0714 21.1952 17.0644 21.1752L17.0584 21.1562C17.0554 21.1401 17.0484 21.1011 17.0464 21.0891V21.073C17.0464 21.057 17.0464 20.9809 17.0464 20.9809C17.0464 20.9308 17.0484 20.8787 17.0443 20.8257C17.0343 20.7035 17.0073 20.5232 16.8811 20.371C16.842 20.3239 16.797 20.2878 16.7529 20.2538C16.7299 20.2358 16.7078 20.2187 16.6888 20.2007L16.6948 20.1887C16.7219 20.1286 16.7419 20.0795 16.7569 20.0324C16.803 19.8822 16.803 19.719 16.7559 19.5607C16.7209 19.4405 16.6558 19.3354 16.5977 19.2473C16.5716 19.2072 16.5466 19.1671 16.5226 19.1261L16.4975 19.083C16.4975 19.083 16.4985 19.077 16.4995 19.074C16.5015 19.066 16.5045 19.057 16.5045 19.057L16.5125 19.0399C16.5356 18.9959 16.5366 18.9949 16.5686 18.9508L16.5917 18.9198C16.6137 18.8897 16.6357 18.8607 16.6598 18.8306C16.6968 18.7825 16.7359 18.7365 16.7739 18.6894C16.8611 18.5832 16.9522 18.4721 17.0293 18.3509C17.1375 18.1816 17.2336 18.0024 17.3228 17.801C17.4219 17.5757 17.5061 17.3423 17.5872 17.116C17.6363 16.9788 17.6853 16.8416 17.7384 16.7054C17.8195 16.4951 17.8946 16.3278 17.9728 16.1796C17.9978 16.1315 18.0238 16.0844 18.0539 16.0344C18.0569 16.0303 18.0619 16.0213 18.0619 16.0213C18.0749 15.9993 18.0889 15.9783 18.102 15.9572C18.159 15.8711 18.2151 15.795 18.2742 15.7249C18.5056 15.4505 18.8311 15.2121 19.2407 15.0158C19.7895 14.7534 20.4095 14.6152 21.0334 14.6152C21.2077 14.6152 21.384 14.6262 21.5572 14.6472C21.9508 14.6963 22.3264 14.8075 22.6729 14.9777C22.8272 15.0539 22.9764 15.142 23.1146 15.2411C23.1797 15.2872 23.2478 15.3393 23.3129 15.3934C23.3129 15.3934 23.3419 15.4184 23.3429 15.4194C23.357 15.4324 23.372 15.4445 23.386 15.4585C23.4171 15.4865 23.4471 15.5156 23.4761 15.5446C23.5923 15.6598 23.7025 15.785 23.8016 15.9172C23.8267 15.9502 23.8507 15.9833 23.8728 16.0163L23.9008 16.0584C23.9048 16.0704 23.9128 16.0824 23.9248 16.0954C23.9669 16.1615 24.007 16.2307 24.045 16.3008C24.1021 16.4069 24.1542 16.5171 24.1993 16.6273L24.2023 16.6353C24.2053 16.6443 24.2093 16.6513 24.2093 16.6513L24.2293 16.7054C24.2553 16.7775 24.2804 16.8546 24.3054 16.9397C24.3164 16.9768 24.3264 17.0138 24.3355 17.0509L24.3455 17.093L24.3525 17.123C24.3685 17.2011 24.3825 17.2803 24.3935 17.3594C24.3996 17.4004 24.4046 17.4415 24.4086 17.4735C24.4086 17.4776 24.4086 17.4856 24.4106 17.4946L24.4146 17.5417C24.4196 17.6218 24.4226 17.7049 24.4226 17.79C24.4226 17.8281 24.4226 17.8651 24.4206 17.9022C24.4206 17.9022 24.4206 17.9172 24.4206 17.9182C24.4196 17.9373 24.4186 17.9563 24.4166 17.9753C24.4106 18.0584 24.4016 18.1426 24.3895 18.2237C24.3875 18.2387 24.3845 18.2547 24.3825 18.2678L24.3785 18.2878C24.3515 18.42 24.3154 18.5512 24.2714 18.6834C24.2654 18.6964 24.2603 18.7094 24.2563 18.7214C24.2563 18.7245 24.2563 18.7275 24.2563 18.7295C24.2563 18.7315 24.2543 18.7335 24.2543 18.7355C24.2423 18.7675 24.2303 18.7996 24.2163 18.8316C24.1442 19.0069 24.052 19.1922 23.9359 19.3965C23.9108 19.4405 23.8848 19.4856 23.8547 19.5347C23.8427 19.5537 23.8317 19.5737 23.8147 19.5998C23.8067 19.6128 23.7986 19.6258 23.7896 19.6409C23.7476 19.709 23.7055 19.7761 23.6624 19.8432L23.5523 20.0174C23.3119 20.397 23.0645 20.7896 22.9744 21.2353C22.9403 21.4015 22.9293 21.5558 22.9413 21.695C22.9393 21.718 22.9443 21.7501 22.9544 21.8062C22.9564 21.8202 22.9594 21.8342 22.9624 21.8472C22.9724 21.8933 22.9834 21.9424 22.9984 21.9884C23.0014 21.9984 23.0054 22.0095 23.0084 22.0165C23.0215 22.0525 23.0375 22.0866 23.0535 22.1206C23.0625 22.1397 23.0715 22.1587 23.0795 22.1777C23.1076 22.2428 23.1807 22.3119 23.2658 22.3109C23.351 22.3089 23.4131 22.2388 23.4421 22.1737C23.4962 22.0535 23.5022 21.9153 23.4611 21.7781L23.4581 21.7671C23.4551 21.7541 23.4521 21.7421 23.4481 21.729C23.4481 21.729 23.4451 21.682 23.4451 21.6709V21.6579C23.4481 21.6349 23.4511 21.6129 23.4551 21.5888L23.4581 21.5738C23.4711 21.5197 23.4862 21.4656 23.5052 21.4065C23.5052 21.4045 23.5092 21.3965 23.5102 21.3945C23.5182 21.3735 23.5272 21.3515 23.5382 21.3254C23.5603 21.2733 23.5853 21.2233 23.6104 21.1722C23.6544 21.0851 23.7055 20.9909 23.7656 20.8847C23.7926 20.8377 23.8207 20.7896 23.8487 20.7435L23.8938 20.6684L23.9489 20.5793C23.9979 20.5002 24.047 20.42 24.0961 20.3409C24.2173 20.1436 24.3445 19.9323 24.4536 19.714C24.8022 19.0169 24.9434 18.1646 24.8502 17.3143L24.8512 17.3163Z" fill="#285331"/>
<path d="M18.7079 18.551C18.6868 18.551 18.6578 18.557 18.6287 18.5831C18.6257 18.5851 18.6227 18.5881 18.6207 18.5911C18.5286 18.6872 18.3994 18.7443 18.2752 18.7443C18.2331 18.7443 18.1911 18.7373 18.152 18.7243C18.0699 18.6972 18.0028 18.6522 17.9497 18.5901C17.9116 18.545 17.8866 18.4889 17.8596 18.4298C17.8506 18.4098 17.8415 18.3898 17.8315 18.3697C17.8035 18.3127 17.7574 18.3066 17.7384 18.3066C17.6773 18.3066 17.6352 18.3627 17.6262 18.4188C17.5791 18.7123 17.8125 19.0037 18.0589 19.0928C18.128 19.1179 18.2021 19.1309 18.2782 19.1309C18.4885 19.1309 18.6858 19.0358 18.805 18.8775C18.8561 18.8094 18.8521 18.7183 18.8331 18.6602C18.812 18.5941 18.7629 18.553 18.7069 18.553L18.7079 18.551Z" fill="#285331"/>
<path d="M22.5446 19.9062C22.5396 19.9332 22.5326 19.9593 22.5246 19.9853C22.4695 20.1666 22.3343 20.3358 22.172 20.427C22.135 20.448 22.0969 20.465 22.0578 20.4821C21.9938 20.5111 21.9266 20.5402 21.8656 20.5852C21.7484 20.6694 21.6963 20.7825 21.6432 20.8967C21.6202 20.9458 21.6032 20.9668 21.5751 20.9808C21.5551 20.9908 21.53 20.9959 21.502 20.9959C21.485 20.9959 21.4679 20.9938 21.4499 20.9908C21.4089 20.9828 21.3638 20.9608 21.3087 20.9217C21.2897 20.9077 21.2716 20.8927 21.2536 20.8777C21.2166 20.8456 21.1735 20.8086 21.1174 20.7845C21.0994 20.7765 21.0804 20.7725 21.0623 20.7725C21.0163 20.7725 20.9752 20.7975 20.9512 20.8416C20.9091 20.9177 20.9171 21.07 20.9542 21.1271C21.0583 21.2903 21.2807 21.4556 21.505 21.4556C21.6242 21.4556 21.7293 21.4085 21.8085 21.3183C21.8565 21.2643 21.8836 21.2002 21.9086 21.1441C21.9327 21.087 21.9547 21.0379 21.9907 21.0049C22.0398 20.9608 22.1049 20.9328 22.175 20.9017C22.2211 20.8817 22.2692 20.8606 22.3152 20.8336C22.5596 20.6914 22.7369 20.47 22.828 20.1956C22.9242 19.9052 22.9372 19.4755 22.6568 19.2191C22.5276 19.101 22.3683 19.0379 22.1961 19.0369H22.19C21.9677 19.0369 21.7724 19.118 21.6683 19.2552C21.6352 19.3003 21.6192 19.3974 21.6502 19.4645C21.6703 19.5086 21.7083 19.5356 21.7544 19.5396C21.7614 19.5396 21.7694 19.5396 21.7764 19.5396C21.8315 19.5396 21.8846 19.5266 21.9317 19.5146L21.9577 19.5086C22.0088 19.4966 22.0609 19.4906 22.1119 19.4906H22.133C22.2331 19.4946 22.3333 19.5276 22.4204 19.5877C22.4845 19.6318 22.5336 19.6969 22.5456 19.755C22.5526 19.785 22.5536 19.8261 22.5496 19.8641L22.5436 19.9082L22.5446 19.9062Z" fill="#285331"/>
<path d="M16.9292 10.4478C16.9332 10.4107 16.9402 10.3707 16.9472 10.3306L16.9542 10.2936C16.9582 10.2705 16.9562 10.1944 16.9182 10.1503C16.8981 10.1263 16.8701 10.1133 16.84 10.1133C16.821 10.1133 16.802 10.1183 16.785 10.1293C16.6437 10.2164 16.6247 10.4157 16.6337 10.568C16.6427 10.7382 16.6958 10.8915 16.785 11.0127C16.9091 11.1809 17.1165 11.2851 17.3258 11.2851C17.3999 11.2851 17.47 11.272 17.5361 11.246C17.6383 11.2059 17.6342 11.0657 17.6302 11.0227C17.6222 10.9345 17.5802 10.8404 17.488 10.8404C17.483 10.8404 17.471 10.8414 17.466 10.8424C17.4239 10.8504 17.3829 10.8544 17.3428 10.8544C17.2467 10.8544 17.1104 10.8304 17.0093 10.7192C16.9853 10.6932 16.9682 10.6661 16.9472 10.6261C16.9472 10.6251 16.9442 10.6191 16.9432 10.617C16.9392 10.606 16.9362 10.595 16.9312 10.58L16.9292 10.574L16.9232 10.5389V10.5129C16.9232 10.5129 16.9252 10.4838 16.9252 10.4818L16.9292 10.4488V10.4478Z" fill="#285331"/>
</svg>
