<svg width="500" height="500" viewBox="0 0 500 500" fill="none" xmlns="http://www.w3.org/2000/svg">
<g clip-path="url(#clip0_2016_25)">
<path d="M292.531 88.8878C292.258 89.6938 291.999 90.4138 291.725 91.0867C290.52 94.1543 289.3 96.5019 287.5 99.1938C285.817 101.721 283.767 104.351 281.232 107.238C276.834 112.246 271.826 116.386 265.925 119.9C259.618 123.664 252.56 126.582 244.953 128.586C230.93 132.279 214.935 133.265 196.061 131.606C192.242 131.27 188.329 130.839 184.542 130.425C170.237 128.86 155.455 127.24 140.642 129.799C131.009 131.465 122.518 134.76 115.405 139.58C108.151 144.503 102.282 151.248 97.9623 159.645C96.9293 161.663 96.0763 163.8 95.3642 166.171C94.746 168.198 94.973 170.592 95.9355 172.376C96.8902 174.207 98.6978 175.405 100.654 175.499C100.74 175.499 100.826 175.499 100.92 175.499C102.689 175.499 104.316 174.607 105.326 173.081L106.03 172.001C107.783 169.324 109.434 166.797 111.383 164.559C113.409 162.243 115.82 160.036 118.754 157.813C124.177 153.697 130.993 150.763 138.998 149.112C153.358 146.146 168.476 148 183.094 149.792C185.997 150.152 189.002 150.52 191.96 150.841C212.783 153.142 229.616 152.445 244.93 148.642C254.25 146.334 262.647 143.031 269.885 138.837C276.771 134.854 283.086 129.744 288.658 123.656C288.681 123.632 288.697 123.617 288.713 123.593C293.791 118.029 298.017 111.339 301.632 103.161C305.13 95.2577 307.063 86.7359 307.235 78.5036C307.274 76.4847 307.126 74.3718 306.774 71.8521C306.578 70.4513 305.921 67.8924 303.683 66.4917C302.321 65.6387 300.654 65.4353 299.144 65.9205C297.508 66.4448 294.762 68.1037 294.762 73.3702C294.762 73.7536 294.762 74.1371 294.738 74.5127C294.738 74.5675 294.738 74.6222 294.738 74.677V74.7005C294.723 74.9431 294.723 75.1778 294.715 75.4204V75.8195C294.699 75.8821 294.699 76.0073 294.699 76.0699C294.699 76.1247 294.699 76.1795 294.699 76.2343V76.2969C294.699 76.3595 294.691 76.4142 294.691 76.4612L294.605 77.995C294.519 79.4739 294.355 80.9764 294.097 82.5963C294.081 82.6745 294.073 82.7449 294.065 82.8154L293.744 84.4196C293.572 85.2177 293.361 86.0707 293.118 86.9315C293.009 87.3228 292.899 87.7062 292.766 88.1444C292.735 88.254 292.704 88.3635 292.665 88.4653C292.641 88.5357 292.618 88.6061 292.602 88.6687V88.6374C292.586 88.7078 292.563 88.7861 292.539 88.8643L292.531 88.8878Z" fill="#285331"/>
<path d="M45.0316 228.57C45.0864 228.57 45.149 228.57 45.2038 228.57C47.5592 228.523 49.7268 227.068 50.9319 224.751C50.9789 224.673 51.018 224.587 51.0571 224.509C52.5987 221.285 52.5361 217.325 50.8928 213.913C45.2038 202.16 41.565 192.816 39.0766 183.637C38.787 182.565 38.4584 181.36 38.1923 180.186C38.1532 180.022 38.114 179.85 38.0906 179.748L37.8715 178.762C37.7228 178.097 37.5819 177.432 37.4411 176.759C36.6585 172.932 36.0638 169.019 35.6882 165.138C35.6882 165.091 35.6882 165.044 35.6882 164.997C35.6647 164.645 35.6334 164.285 35.6021 163.925V163.886C35.5473 163.252 35.516 162.603 35.4769 161.969V161.875C35.3204 159.175 35.2813 156.436 35.3595 153.744C35.3595 153.705 35.3595 153.658 35.3595 153.611C35.3595 153.533 35.3595 153.447 35.3673 153.369V153.11C35.383 153.064 35.383 153.017 35.383 152.97L35.4769 151.303C35.563 150.153 35.6647 148.994 35.7899 147.891C35.9073 146.835 36.0481 145.77 36.1968 144.722C36.2516 144.338 36.3142 143.955 36.3768 143.579L36.5959 142.312C37.042 140.027 37.5741 137.773 38.1845 135.597C38.4584 134.596 38.7635 133.594 39.0922 132.592L39.1939 132.272C39.2252 132.162 39.2565 132.052 39.28 131.998C39.3191 131.896 39.3504 131.802 39.3817 131.716C39.5617 131.184 39.7574 130.66 39.953 130.135C40.7434 128.03 41.6198 125.949 42.551 123.969C42.9892 123.038 43.4744 122.075 44.0065 121.042C44.2256 120.628 44.4447 120.221 44.6873 119.782L44.9612 119.282C44.9612 119.282 44.9612 119.274 44.969 119.266C44.969 119.266 44.969 119.258 44.9769 119.25C45.016 119.188 45.0551 119.117 45.0942 119.047L45.3055 118.679C47.5827 114.837 50.1729 111.261 53.0135 108.06C54.0073 106.949 55.0481 105.853 56.1123 104.805C56.1358 104.789 56.1514 104.766 56.1749 104.75C56.2219 104.703 56.2766 104.656 56.3314 104.601C56.5975 104.351 56.8635 104.108 57.1296 103.858C58.7495 102.371 60.4084 101.002 62.0752 99.773C65.7531 97.0419 69.9162 94.6396 74.4471 92.6206C82.4289 89.0523 91.4437 86.689 102.822 85.1787C112.494 83.8954 122.526 83.5198 132.222 83.1598C145.157 82.6746 158.538 82.166 171.677 79.5523C188.188 76.2657 210.498 68.2525 223.003 48.7753C223.708 47.6719 224.357 46.5685 224.913 45.606C225.687 44.2366 226.22 42.8358 226.681 41.5994L226.861 41.1221C227.605 39.1657 227.597 36.8573 226.838 34.9635C226.04 32.9368 224.482 31.5908 222.565 31.27C220.757 30.9648 218.934 31.6612 217.666 33.1481C217.447 33.4063 217.213 33.6567 216.978 33.8993C216.508 34.4001 215.968 34.9635 215.444 35.66C214.943 36.333 214.348 37.0529 213.582 37.9215C212.079 39.6196 210.702 41.0203 209.372 42.2254C206.468 44.8704 203.057 47.3589 199.206 49.6204C191.749 54.0339 183.454 57.2814 174.549 59.269C160.925 62.3131 146.55 62.7748 132.644 63.2208C123.723 63.5104 114.497 63.7999 105.412 64.7702C93.1027 66.0771 82.5776 68.4482 73.2342 72.0243C62.7169 76.0544 53.5847 81.9703 46.0802 89.6079C32.1668 103.827 23.4181 124.008 21.4382 146.459C19.4663 168.824 24.1849 192.636 35.4769 217.247C36.7603 220.033 37.981 222.498 39.2174 224.791C40.4773 227.138 42.7153 228.57 45.0395 228.57H45.0316Z" fill="#285331"/>
<path d="M377.695 445.489C375.965 444.777 374.056 444.98 372.467 446.052C372.428 446.083 372.381 446.107 372.342 446.138C364.032 451.694 354.43 456.914 343.811 461.648C334.194 465.944 323.911 469.497 313.237 472.204C302.673 474.889 291.82 476.782 280.981 477.823C269.267 478.95 258.507 479.239 248.084 478.715C236.369 478.128 225.68 476.829 215.397 474.755C214.145 474.505 212.901 474.231 211.68 473.965C200.287 471.375 189.042 467.775 178.258 463.284C168.077 459.042 158.147 453.971 148.741 448.212C143.576 445.043 138.49 441.615 133.638 438.039C120.155 427.96 108.018 416.41 97.5712 403.717C95.6696 401.409 93.7993 399.022 91.9839 396.612C91.89 396.486 91.8039 396.361 91.71 396.236C91.4987 395.947 91.2874 395.657 91.0683 395.375C90.9744 395.242 90.8727 395.109 90.7553 394.945C88.3294 391.596 85.9818 388.137 83.7751 384.662C79.4086 377.792 75.4489 370.553 72.0058 363.151C71.5989 362.282 71.2076 361.405 70.8085 360.513C70.7929 360.474 70.7772 360.443 70.7537 360.404C70.7537 360.396 70.7459 360.38 70.7381 360.373L70.5972 360.044C70.5816 359.997 70.5581 359.958 70.5424 359.911C70.3703 359.512 70.1981 359.105 70.0103 358.659C69.1261 356.569 68.367 354.691 67.6862 352.923C66.2463 349.19 64.916 345.364 63.7344 341.545C63.1475 339.659 62.5684 337.663 62.0128 335.629C61.9189 335.292 61.825 334.956 61.7233 334.612C61.6842 334.471 61.645 334.338 61.6059 334.205C61.512 333.547 61.3711 332.984 61.199 332.483L60.8703 331.106C59.9313 327.13 59.1253 323.077 58.4758 319.047C58.1706 317.184 57.9045 315.252 57.6385 313.107C57.5211 312.153 57.4115 311.19 57.3176 310.243L57.2941 310.032C57.255 309.649 57.2237 309.257 57.1924 308.835C56.8481 304.664 56.6603 300.516 56.6446 296.526C56.6446 294.475 56.6681 292.386 56.7385 290.32C56.7385 290.265 56.7385 290.218 56.7385 290.164V290.062C56.7385 289.905 56.7542 289.749 56.7698 289.577C56.8324 288.63 56.8951 287.691 56.989 286.728C57.1455 285.022 57.3489 283.254 57.6072 281.462C57.7324 280.578 57.881 279.693 58.0297 278.84L58.1706 278.089L58.2332 277.792C58.2332 277.792 58.2332 277.768 58.2332 277.76C58.2332 277.753 58.2332 277.745 58.2332 277.737C58.2332 277.721 58.2332 277.706 58.241 277.698C58.241 277.698 58.241 277.69 58.241 277.682C59.0001 274.051 59.9469 270.545 61.0503 267.251C61.2851 266.555 61.5276 265.866 61.7859 265.169L61.8563 264.974C62.0285 264.528 62.2085 264.097 62.3884 263.644C63.0692 262.016 63.7892 260.427 64.5326 258.94C65.3464 257.313 66.1916 255.756 67.0602 254.284C67.2714 253.924 67.4906 253.564 67.7253 253.197C67.7801 253.111 67.8349 253.025 67.8896 252.938C68.3748 252.211 68.8287 251.514 69.3217 250.833C71.3406 247.993 73.5708 245.34 75.9576 242.945C76.9044 241.999 77.9452 241.036 79.2286 239.901C82.523 237.163 86.1383 234.76 89.9884 232.749C95.3801 229.924 99.9735 227.991 104.45 226.661C111.007 224.892 117.385 224.65 123.387 225.925C128.34 227.146 133.208 229.095 137.848 231.708C139.985 232.921 142.144 234.345 144.468 236.075C144.547 236.13 144.68 236.239 144.781 236.317C145.016 236.505 145.251 236.693 145.54 236.936C146.033 237.343 146.519 237.749 147.019 238.203C150.001 240.825 152.701 243.783 155.017 246.929L155.291 247.312C155.322 247.351 155.353 247.398 155.385 247.445L155.604 247.774C155.604 247.774 155.651 247.844 155.674 247.883C156.058 248.447 156.426 249.034 156.778 249.613C157.529 250.833 158.241 252.109 158.906 253.416C159.258 254.097 159.563 254.723 159.853 255.356C160.002 255.669 160.15 255.982 160.283 256.303C160.299 256.35 160.323 256.389 160.346 256.436C160.362 256.476 160.385 256.515 160.401 256.554C160.416 256.585 160.424 256.624 160.432 256.655C160.448 256.687 160.456 256.718 160.463 256.742C160.463 256.757 160.479 256.773 160.487 256.788C160.706 257.383 160.941 257.97 161.176 258.565C161.473 259.3 161.747 259.997 161.989 260.686C162.482 262.086 162.936 263.557 163.359 265.044C163.562 265.764 163.758 266.484 163.93 267.157L164.047 267.65C164.11 267.9 164.165 268.151 164.227 268.448C164.877 271.328 165.401 274.302 165.839 277.541C166.019 278.895 166.199 280.382 166.387 282.229C166.411 282.526 166.442 282.816 166.465 283.183C166.536 283.997 166.591 284.827 166.645 285.648C167.091 292.339 167.146 298.967 167.162 305.72V308.005C167.185 322.052 167.209 336.568 170.034 350.802C172.444 362.931 176.771 374.403 182.906 384.905C188.909 395.172 196.343 404.21 204.99 411.762C213.965 419.61 223.802 425.753 234.217 430.026C245.047 434.471 257.13 437.116 269.173 437.656C281.154 438.196 293.291 436.67 305.263 433.133C311.086 431.411 316.798 429.189 322.244 426.512C325.453 424.932 328.012 423.515 330.273 422.06L330.43 421.958C333.02 420.299 335.696 418.593 338.153 416.472C338.701 416.003 339.249 415.541 339.797 415.072C341.456 413.663 343.169 412.2 344.844 410.635C347.246 408.357 347.348 404.687 346.714 402.246C346.472 401.299 345.447 398.13 342.449 397.112C340.736 396.526 338.834 396.862 337.379 398.005C332.472 401.839 326.744 405.439 319.866 409.007C313.676 412.208 307.22 414.704 300.67 416.433C287.163 420.009 272.898 420.69 259.423 418.405C247.012 416.308 234.726 411.112 222.886 402.958C221.485 401.995 220.108 400.939 219.005 400.078C218.934 400.016 218.856 399.953 218.778 399.898L217.581 398.92C216.868 398.333 216.164 397.731 215.483 397.136C213.011 394.968 210.608 392.652 208.354 390.25C206.218 387.972 204.043 385.421 201.899 382.683C200.803 381.29 199.739 379.85 198.761 378.441C198.049 377.393 197.344 376.321 196.679 375.264C194.942 372.51 193.322 369.622 191.859 366.688C191.147 365.263 190.458 363.769 189.793 362.243C189.769 362.196 189.761 362.165 189.738 362.118L189.707 362.047C189.675 361.977 189.644 361.906 189.613 361.836L189.456 361.452C189.378 361.257 189.292 361.061 189.206 360.85C187.696 357.07 186.428 353.15 185.434 349.198C185.434 349.182 185.426 349.159 185.418 349.143L185.34 348.799C185.27 348.509 185.207 348.228 185.137 347.899C184.894 346.78 184.691 345.77 184.519 344.8C184.143 342.734 183.814 340.629 183.533 338.36C183.407 337.397 183.306 336.419 183.204 335.457C183.204 335.183 183.18 334.807 183.11 334.377L182.993 332.999C182.836 330.816 182.711 328.594 182.625 326.387C182.437 321.653 182.413 316.879 182.406 312.779C182.406 311.37 182.406 309.962 182.406 308.553C182.421 301.283 182.437 293.763 182.014 286.306C180.77 264.223 176.302 247.829 167.96 234.721C159.063 220.753 145.705 210.283 130.344 205.235C121.266 202.254 112.142 201.753 103.213 203.741C95.0671 205.556 86.647 208.937 78.8764 213.53C66.2385 220.98 55.9638 232.616 49.1636 247.171C42.9346 260.506 39.6245 276.086 39.3115 293.482C39.022 309.782 41.1192 326.497 45.5405 343.172C49.5158 358.111 55.5491 373.034 63.484 387.511C71.0824 401.377 80.3085 414.5 90.9196 426.512C101.359 438.329 113.488 449.268 126.971 459.034C140.172 468.589 154.336 476.61 169.063 482.878C184.816 489.577 201.429 494.413 218.441 497.238C229.53 499.077 240.822 500 252.176 500C256.887 500 261.614 499.844 266.332 499.523C282.108 498.458 298.252 495.5 314.325 490.727C329.686 486.157 344.633 480.006 358.757 472.447C364.799 469.207 371.145 465.334 378.728 460.255C381.913 458.134 382.398 454.112 381.842 451.287C381.631 450.239 380.708 446.733 377.656 445.473L377.695 445.489Z" fill="#285331"/>
<path d="M395.309 334.04L395.607 333.555C395.638 333.5 395.669 333.453 395.7 333.399L396.311 332.405C397.164 331.035 398.017 329.658 398.854 328.281C401.029 324.736 403.314 320.948 405.294 316.989C411.711 304.155 414.309 288.497 412.611 272.909C412.595 272.76 412.572 272.611 412.541 272.463C410.96 258.667 405.482 245.293 397.101 234.768C388.368 223.813 375.918 215.768 362.036 212.129C354.273 210.103 346.401 209.336 338.646 209.852C330.954 210.361 323.222 212.02 315.663 214.766C307.798 217.623 300.756 221.394 294.714 225.98C291.021 228.782 287.899 231.794 285.434 234.94C283.149 237.859 281.075 241.161 279.103 245.043C276.356 250.434 274.337 256.084 272.381 261.538C271.951 262.736 271.52 263.941 271.082 265.138C270.041 268.002 268.773 271.359 267.302 274.591C266.621 276.094 265.878 277.58 265.088 279.005C264.916 279.325 264.728 279.646 264.556 279.944L264.454 280.116C264.407 280.194 264.368 280.272 264.321 280.343C264.274 280.413 264.219 280.507 264.156 280.601L264.102 280.687C263.695 281.344 263.249 282.025 262.771 282.698C261.965 283.849 261.019 284.975 260.017 286.165C258.647 287.792 257.239 289.467 256.002 291.416C256.002 291.408 255.987 291.4 255.979 291.384C249.32 282.424 240.297 275.366 232.354 269.646C227.041 265.819 222.072 263.025 217.142 261.1C214.473 260.059 211.39 259.332 207.994 258.933C206.499 258.76 204.88 258.62 203.158 258.792L202.853 258.815C202.18 258.87 201.264 258.948 200.223 259.261C199.48 259.496 198.807 259.778 198.22 260.028C198.04 260.106 197.86 260.185 197.672 260.255C195.278 261.233 193.893 263.808 194.057 266.977C194.214 269.982 195.81 272.29 198.181 272.987C198.776 273.167 199.363 273.37 199.942 273.589C200.74 273.895 201.476 274.036 202.062 274.153C202.258 274.192 202.454 274.231 202.641 274.278C203.228 274.435 203.815 274.568 204.402 274.709C205.232 274.904 206.014 275.084 206.719 275.303C209.363 276.133 211.977 277.353 214.184 278.433C219.521 281.039 224.435 284.6 228.543 287.73C232.706 290.907 237.55 294.773 241.854 299.311C243.834 301.401 245.61 303.568 247.136 305.736L247.715 306.573C247.715 306.573 247.755 306.628 247.77 306.659C247.794 306.691 247.794 306.699 247.817 306.73C247.872 306.808 247.919 306.894 247.974 306.972C248.349 307.551 248.701 308.138 249.038 308.702C249.727 309.883 250.376 311.081 250.971 312.286C251.268 312.881 251.55 313.491 251.8 314.039C251.918 314.289 252.027 314.547 252.137 314.806C252.16 314.853 252.16 314.876 252.184 314.923C252.231 315.032 252.27 315.134 252.325 315.244C252.325 315.244 252.325 315.252 252.325 315.259C252.81 316.504 253.264 317.779 253.655 319.047C253.851 319.681 254.038 320.315 254.218 320.948C254.297 321.222 254.367 321.496 254.445 321.833L254.578 322.373C254.226 325.26 254.649 328.273 255.752 330.84C255.791 331.63 255.807 332.405 255.807 333.148C255.807 333.735 255.791 334.322 255.768 334.901C255.768 334.917 255.768 334.94 255.768 334.964C255.768 334.979 255.768 334.995 255.768 335.011C255.744 335.394 255.721 335.77 255.682 336.169C255.572 337.452 255.408 338.806 255.173 340.347C255.142 340.582 255.103 340.817 255.056 341.083C254.876 341.693 254.782 342.265 254.703 342.742C254.672 342.938 254.641 343.125 254.594 343.321C254.281 344.651 253.913 345.997 253.498 347.32C252.778 349.605 251.8 351.984 250.517 354.566L250.337 354.934C249.75 356.116 249.194 357.227 248.608 358.283C248.279 358.87 247.942 359.457 247.575 360.059C247.387 360.372 247.191 360.686 246.996 360.999C246.996 361.006 246.98 361.022 246.98 361.03L245.462 363.338C245.43 363.385 245.399 363.432 245.368 363.487L245.282 363.62C244.992 364.066 244.476 364.708 244.319 364.903C244.1 365.169 243.897 365.435 243.693 365.702C243.333 365.412 242.981 365.122 242.621 364.841C241.831 364.199 241.033 363.557 240.25 362.916C238.317 361.335 236.337 359.801 234.381 358.299C236.189 355.443 238.098 352.148 239.671 348.65C242.504 342.366 243.38 336.49 242.261 331.184C241.025 325.284 237.738 320.604 232.996 317.983C228.16 315.322 222.361 315.479 217.862 318.382C216.132 319.493 214.653 320.901 213.456 322.537C212.361 322.208 211.226 322.021 210.076 321.989C204.981 321.864 200.122 325.19 197.993 330.276C193.478 341.036 201.022 350.426 208.151 356.413C209.833 357.821 211.562 359.152 213.237 360.443C214.552 361.452 215.788 362.407 217.017 363.409C218.527 364.629 220.045 365.928 221.516 367.188C223.332 368.738 225.202 370.35 227.143 371.884C230.343 374.419 233.536 377.072 236.619 379.638C239.507 382.041 242.488 384.529 245.219 387.206C246.62 388.583 247.935 390.077 249.382 391.752C250.525 393.067 251.722 394.272 252.88 395.446C256.042 399.147 259.125 403.099 262.286 407.536C263.272 408.921 264.11 410.157 264.853 411.315C266.097 413.256 268.069 414.469 270.135 414.563C270.221 414.563 270.307 414.563 270.401 414.563C272.217 414.563 273.907 413.718 275.065 412.215C279.768 406.166 285.144 401.518 291.029 398.388C294.542 396.526 297.665 395.313 300.576 394.694C304.128 393.935 307.579 393.599 311.14 393.622C311.938 393.622 312.838 393.748 313.793 393.865C314.88 394.006 316.117 394.162 317.424 394.186C317.956 394.194 318.386 394.272 318.942 394.452C319.928 394.781 320.843 394.914 321.579 395.031C321.837 395.07 322.087 395.109 322.346 395.156C322.377 395.156 322.416 395.172 322.447 395.172C324.443 395.516 326.446 394.569 327.44 392.801C328.426 391.04 328.215 388.692 326.955 387.135L326.736 386.861C326.047 386.008 325.186 384.936 324.013 384.021C323.426 383.567 322.847 383.168 322.33 382.816C321.954 382.557 321.579 382.307 321.227 382.041C318.863 380.218 316.375 379.286 314.246 378.613C309.434 377.095 304.504 376.641 299.965 377.307C295.286 377.995 290.763 379.404 286.873 381.376C283.078 383.309 279.4 385.828 275.613 389.06C274.048 390.398 272.49 391.869 270.894 393.513C268.75 390.516 266.402 387.534 263.804 384.498C261.809 382.166 259.673 379.795 257.262 377.26C256.863 376.837 256.464 376.422 256.057 376.008C257.591 374.216 258.835 372.267 259.954 370.514L260.134 370.24C262.857 365.96 265.056 361.139 266.848 355.529C269.47 358.972 272.913 361.914 276.959 364.066C285.16 368.425 294.339 369.16 303.033 369.536C306.773 369.692 311.719 369.818 316.852 369.372L317.901 369.278C321.18 368.98 324.279 368.699 326.963 369.387C327.229 369.458 327.565 369.575 327.925 369.692C328.434 369.872 329.013 370.068 329.662 370.232C329.858 370.279 330.202 370.397 330.774 370.694C331.65 371.14 332.487 371.563 332.871 371.977C333.998 373.222 335.641 373.84 337.276 373.644C338.959 373.441 340.461 372.384 341.307 370.811C341.901 369.7 342.144 368.386 342.011 367.063C341.964 366.539 341.862 366.046 341.713 365.576C340.094 360.427 336.697 356.256 332.386 354.128C327.722 351.827 322.714 351.452 318.433 351.381C315.984 351.342 313.464 351.217 311.03 351.107C309.309 351.021 307.587 350.943 305.866 350.888C301.296 350.739 297.477 350.536 293.681 350.067C290.418 349.66 286.96 349.112 283.829 347.868C282.405 347.296 281.091 346.623 279.94 345.872C279.048 345.285 278.195 344.55 277.334 343.634C276.951 343.227 276.614 342.836 276.333 342.46L276.301 342.413C276.231 342.312 276.129 342.163 276.067 342.069L276.043 342.038C275.863 341.756 275.691 341.42 275.527 341.107L275.48 341.005C275.48 341.005 275.456 340.958 275.448 340.934C275.355 340.7 275.268 340.457 275.182 340.199L275.151 340.089C275.112 339.886 275.065 339.635 275.034 339.448C275.034 339.424 275.034 339.401 275.034 339.377C275.034 339.127 275.034 338.876 275.034 338.626V337.882C275.057 336.967 275.073 335.926 274.987 334.831C274.775 332.248 274.181 328.414 271.379 325.033C270.738 324.259 270.049 323.64 269.407 323.116C269.54 322.756 269.658 322.412 269.767 322.075C270.777 318.82 270.777 315.299 269.767 311.91C269.024 309.375 267.733 307.285 266.575 305.525C266.262 305.055 265.995 304.633 265.753 304.226C265.8 304.155 265.862 304.077 265.933 303.983L266.379 303.388C266.747 302.895 267.107 302.41 267.498 301.917C268.14 301.096 268.797 300.297 269.454 299.491C271.058 297.535 272.717 295.516 274.189 293.208C276.161 290.124 277.984 286.72 279.596 283.082C281.396 279.012 282.898 274.834 284.346 270.788C285.191 268.425 286.075 265.983 286.991 263.628C288.384 260.044 289.644 257.203 290.966 254.691C291.389 253.893 291.827 253.095 292.265 252.352C292.336 252.242 292.406 252.125 292.476 251.992C292.68 251.671 292.875 251.35 293.071 251.053C294.01 249.628 294.934 248.384 295.888 247.249C299.676 242.758 305.052 238.829 311.868 235.574C323.879 229.838 337.394 227.694 350.947 229.368C357.536 230.182 363.812 232.045 369.595 234.885C372.162 236.145 374.635 237.616 376.951 239.26C378.023 240.019 379.134 240.872 380.245 241.787C380.324 241.858 380.41 241.92 380.488 241.991L380.535 242.03C380.535 242.03 380.535 242.03 380.543 242.038C380.605 242.092 380.668 242.155 380.723 242.202C380.95 242.398 381.169 242.593 381.427 242.836C381.943 243.305 382.444 243.783 382.937 244.268C384.878 246.177 386.701 248.275 388.36 250.481C388.775 251.029 389.166 251.585 389.565 252.148L389.745 252.414C389.8 252.492 389.855 252.571 389.91 252.657C390.074 252.978 390.27 253.283 390.504 253.572C391.17 254.637 391.811 255.732 392.398 256.828C393.345 258.604 394.221 260.443 394.973 262.274C394.996 262.329 395.02 262.399 395.059 262.478C395.074 262.517 395.09 262.556 395.106 262.587C395.223 262.9 395.348 263.213 395.466 263.534C395.912 264.755 396.326 266.038 396.741 267.47C396.921 268.088 397.086 268.706 397.234 269.293L397.508 270.475C397.782 271.782 398.017 273.112 398.205 274.419C398.298 275.108 398.385 275.796 398.463 276.485C398.463 276.555 398.478 276.641 398.486 276.72C398.494 276.845 398.51 276.994 398.518 277.127L398.541 277.424C398.635 278.77 398.682 280.171 398.682 281.587C398.682 282.213 398.666 282.831 398.643 283.457C398.643 283.512 398.643 283.567 398.643 283.622C398.627 283.95 398.604 284.271 398.58 284.615C398.478 285.993 398.33 287.393 398.118 288.794C398.087 289.005 398.056 289.217 398.009 289.475L397.962 289.733C397.532 291.862 396.96 293.982 396.28 296.048C396.1 296.447 395.982 296.799 395.904 297.042C395.873 297.136 395.857 297.238 395.833 297.332C395.653 297.801 395.474 298.278 395.278 298.756C394.057 301.729 392.5 304.867 390.512 308.342C390.074 309.109 389.628 309.868 389.135 310.689C388.932 311.026 388.736 311.37 388.525 311.699C388.493 311.746 388.462 311.793 388.431 311.84C388.306 312.051 388.172 312.262 388.039 312.466C388.024 312.489 388.008 312.513 387.992 312.536C387.249 313.726 386.506 314.915 385.762 316.097L383.829 319.156C379.651 325.769 374.909 333.266 373.21 341.693C372.537 345.011 372.334 348.008 372.584 350.818C372.6 351.53 372.717 352.234 372.827 352.915C372.874 353.236 372.944 353.541 372.999 353.784C373.187 354.668 373.398 355.615 373.711 356.577C373.782 356.812 373.876 357.055 373.969 357.289C374.243 358.033 374.556 358.698 374.83 359.293C374.971 359.598 375.112 359.895 375.245 360.208C376.153 362.321 378.461 364.559 381.552 364.496C384.033 364.426 386.302 362.791 387.492 360.208C388.752 357.422 388.924 354.269 387.992 351.06C387.953 350.873 387.906 350.693 387.859 350.505V350.466C387.852 350.333 387.844 350.2 387.836 350.067C387.867 349.761 387.906 349.464 387.969 349.104L387.992 348.948C388.204 348.071 388.439 347.257 388.673 346.514C388.712 346.428 388.744 346.349 388.767 346.295C388.908 345.919 389.065 345.551 389.213 345.215C389.534 344.464 389.918 343.665 390.411 342.687C391.17 341.193 392.015 339.628 393.079 337.781C393.548 336.959 394.034 336.145 394.527 335.324C394.785 334.893 395.043 334.463 395.317 334.009L395.309 334.04Z" fill="#285331"/>
<path d="M302.282 291.956C300.639 291.572 298.933 292.026 297.641 293.161C297.516 293.27 297.391 293.38 297.274 293.505C296.116 294.702 294.144 295.649 292.32 295.047C291.452 294.757 290.74 294.288 290.2 293.646C289.816 293.192 289.48 292.441 289.088 291.572C288.916 291.189 288.744 290.813 288.564 290.445C287.57 288.387 285.528 287.253 283.352 287.566C280.754 287.933 279.26 290.132 278.915 292.183C278.055 297.598 281.513 305.024 288.619 307.567C290.215 308.138 291.882 308.412 293.549 308.412C298.134 308.412 302.665 306.331 305.412 302.676C306.781 300.853 307.157 298.271 306.39 295.931C305.725 293.881 304.191 292.402 302.282 291.963V291.956Z" fill="#285331"/>
<path d="M365.644 318.296C365.644 318.296 365.644 318.319 365.644 318.327C365.581 318.656 365.495 318.984 365.378 319.352C364.642 321.762 362.788 324.086 360.659 325.284C360.158 325.565 359.556 325.831 358.914 326.121C357.693 326.669 356.308 327.287 354.954 328.257C352.247 330.214 351.034 332.772 350.071 334.838C349.938 334.807 349.563 334.666 348.843 334.165C348.647 334.025 348.389 333.805 348.115 333.571C347.364 332.921 346.339 332.029 344.899 331.403C342.622 330.417 340.141 330.98 338.56 332.835C336.354 335.425 336.784 340.128 338.044 342.092C340.149 345.403 344.523 348.924 349.531 349.323C349.837 349.347 350.142 349.362 350.447 349.362C353.452 349.362 356.175 348.141 358.186 345.88C359.384 344.542 360.002 343.102 360.495 341.944C360.698 341.474 361.003 340.762 361.152 340.598C361.622 340.167 362.553 339.768 363.531 339.338C364.392 338.962 365.37 338.532 366.332 337.968C371.317 335.057 374.933 330.558 376.803 324.963C378.806 318.945 378.986 309.946 372.906 304.382C370.057 301.784 366.552 300.383 362.749 300.329C362.67 300.329 362.6 300.329 362.522 300.329C357.607 300.329 353.233 302.222 350.776 305.446C349.414 307.262 349.125 310.243 350.095 312.38C350.94 314.226 352.63 315.416 354.626 315.557C356.246 315.666 357.693 315.298 358.75 315.032L359.18 314.923C359.931 314.743 360.683 314.665 361.426 314.688C362.608 314.727 363.742 315.111 364.799 315.838C365.323 316.198 365.644 316.66 365.699 316.832C365.73 316.997 365.753 317.349 365.714 317.748L365.652 318.264L365.644 318.296Z" fill="#285331"/>
<path d="M272.905 152.946L272.952 152.484C273.007 151.952 273.124 151.311 273.242 150.638L273.359 149.957C273.586 148.58 273.375 145.535 270.964 143.916C269.329 142.82 267.263 142.773 265.534 143.822C263.413 145.129 260.972 148.032 261.347 154.464C261.551 158.079 262.685 161.382 264.626 164.011C267.467 167.861 272.162 170.091 276.779 170.091C278.438 170.091 280.089 169.802 281.63 169.199C284.197 168.182 285.606 165.427 285.293 161.984C285.167 160.717 284.674 158.377 282.749 156.937C281.568 156.053 280.065 155.701 278.633 155.982C277.35 156.225 274.987 156.397 273.547 154.801C273.367 154.605 273.218 154.394 272.983 153.948C272.952 153.862 272.929 153.783 272.905 153.697L272.874 153.509L272.89 153.142C272.89 153.079 272.897 153.016 272.905 152.954V152.946Z" fill="#285331"/>
<path d="M478.907 274.943C478.9 274.755 478.876 274.575 478.845 274.395C478.109 261.39 476.223 249.824 473.078 239.064C469.439 226.598 464.243 215.909 457.654 207.301C451.268 198.951 443.013 191.823 433.771 186.681C428.317 183.645 422.62 181.423 416.993 180.124C421.25 172.971 424.639 165.099 427.088 156.648C432.683 137.335 432.691 116.699 427.096 98.5366C422.643 84.0911 414.724 71.5001 404.199 62.1253C393.791 52.8445 381.474 46.7016 368.578 44.3462C362.06 43.1567 355.416 42.8828 348.827 43.5167C342.379 44.1349 335.774 45.9973 329.193 49.0101C328.27 47.6798 327.323 46.3964 326.353 45.1443C329.983 50.2073 337.965 62.5401 342.762 79.1063C341.495 73.9964 339.796 68.996 337.691 64.1912C338.302 64.0895 338.912 63.9878 339.523 63.886C341.409 63.5652 343.185 63.2678 344.961 63.1192C351.808 62.5636 357.075 62.6418 362.044 63.3696C363.437 63.5809 364.861 63.8391 366.293 64.1443C366.888 64.2695 367.475 64.4103 368.062 64.5512C368.148 64.5747 368.242 64.5981 368.328 64.6138C368.445 64.6451 368.602 64.6842 368.719 64.7155L369.728 65.0051C372.874 65.9128 375.417 66.7736 377.71 67.7361C382.844 69.8881 387.688 72.6974 392.109 76.0936C396.303 79.3176 400.325 83.4024 403.745 87.9255C404.567 89.0132 405.396 90.187 406.202 91.4078C406.241 91.4625 406.273 91.5173 406.304 91.5643C406.351 91.6425 406.398 91.7208 406.445 91.7912C406.461 91.8068 406.468 91.8303 406.484 91.846C406.578 92.0025 406.68 92.1512 406.774 92.3077L406.914 92.5268C407.306 93.1763 407.689 93.8258 408.057 94.4831C409.403 96.8698 410.647 99.4679 411.782 102.215L411.86 102.418C411.876 102.457 411.891 102.496 411.899 102.535C411.946 102.661 411.993 102.786 412.048 102.903C412.071 102.966 412.103 103.028 412.126 103.091C412.134 103.107 412.15 103.13 412.157 103.146C412.173 103.185 412.189 103.224 412.204 103.263L412.337 103.615C412.674 104.531 412.963 105.392 413.237 106.276C413.542 107.246 413.809 108.146 414.043 109.038L414.137 109.375C414.341 110.087 414.482 110.572 414.568 110.901C414.591 111.096 414.622 111.3 414.661 111.503C414.693 111.652 414.724 111.801 414.755 111.949L414.81 112.223C415.123 113.757 415.389 115.322 415.608 116.887C415.694 117.521 415.765 118.155 415.843 118.796C415.843 119.399 415.921 119.947 415.992 120.393V120.502C416.023 120.776 416.039 121.042 416.054 121.355C416.172 123.374 416.219 125.432 416.187 127.522C416.187 127.764 416.187 127.999 416.172 128.242C416.172 128.39 416.164 128.539 416.156 128.711C416.156 128.774 416.148 128.829 416.14 128.891C415.976 131.92 415.655 134.971 415.178 137.992C415.053 138.375 414.967 138.798 414.912 139.26C414.896 139.432 414.873 139.659 414.849 139.823C414.302 142.593 413.621 145.371 412.815 148.102C412.564 148.971 412.298 149.824 412.024 150.653L411.829 151.225C411.813 151.279 411.79 151.326 411.774 151.381L411.758 151.42C411.727 151.499 411.704 151.585 411.672 151.671C411.602 151.882 411.524 152.093 411.453 152.297C410.264 155.568 408.871 158.784 407.306 161.836C406.922 162.579 406.531 163.323 406.116 164.066C405.944 164.387 405.756 164.7 405.576 165.013C405.428 165.232 405.248 165.522 405.091 165.858C404.246 167.259 403.307 168.683 402.313 170.099C400.341 172.916 398.142 175.616 395.779 178.136C394.582 179.412 393.33 180.656 392.054 181.845C390.137 183.622 389.714 186.118 389.495 187.432C389.143 189.436 389.127 191.345 389.456 193.106C389.636 194.076 389.965 195.54 390.685 197.003C391.984 199.64 394.762 201.98 398.056 201.252C403.534 200 409.403 200.11 415.507 201.581C422.87 203.537 430.03 207.27 436.792 212.693C436.94 212.81 437.089 212.935 437.238 213.053C437.324 213.139 437.41 213.225 437.504 213.303C437.519 213.311 437.527 213.327 437.543 213.334C437.66 213.436 437.785 213.53 437.911 213.616C438.114 213.796 438.325 213.976 438.544 214.18C440.861 216.222 443.052 218.444 445.055 220.776C446.346 222.279 447.559 223.836 448.694 225.44C448.788 225.573 448.882 225.706 448.968 225.831L449.249 226.246C449.336 226.387 449.437 226.536 449.492 226.622L449.594 226.778C449.68 226.911 449.758 227.037 449.876 227.232C450.462 228.179 451.057 229.188 451.644 230.253C453.115 232.898 454.453 235.66 455.619 238.438L455.682 238.579C455.752 238.759 455.831 238.939 455.909 239.119L455.948 239.228C456.41 240.434 456.848 241.568 457.247 242.742C458.022 244.964 458.749 247.296 459.391 249.683C459.649 250.646 459.9 251.608 460.135 252.578C460.135 252.602 460.135 252.618 460.15 252.641C460.221 253.032 460.299 253.486 460.455 253.964C460.581 254.535 460.698 255.106 460.815 255.654C461.715 260.114 462.412 264.864 462.928 270.131L463.108 272.361C463.186 273.441 463.241 274.513 463.296 275.585C463.507 279.936 463.539 284.349 463.398 288.724C463.398 288.935 463.366 289.412 463.359 289.718C463.359 289.78 463.359 289.835 463.359 289.897C463.359 289.913 463.359 289.929 463.359 289.944C463.359 289.991 463.359 290.031 463.359 290.077L463.343 290.437C463.28 291.611 463.21 292.793 463.116 293.982C462.811 298.169 462.318 302.551 461.66 307.004C461.512 308.037 461.34 309.062 461.175 310.079C461.089 310.611 460.995 311.135 460.894 311.691C460.87 311.832 460.815 312.106 460.768 312.372C460.706 312.701 460.659 312.935 460.628 313.131C460.26 314.97 459.876 316.871 459.477 318.695C458.507 322.991 457.38 327.303 456.12 331.513C455.471 333.688 454.798 335.817 454.117 337.859C453.765 338.908 453.413 339.948 453.037 340.997C452.873 341.466 452.7 341.936 452.528 342.421C452.513 342.476 452.489 342.523 452.474 342.578C452.474 342.593 452.466 342.609 452.458 342.625L452.121 343.54C450.556 347.719 448.819 351.913 446.965 356.022C443.404 363.902 439.194 371.86 434.452 379.685C433.873 380.64 433.294 381.587 432.668 382.573C432.519 382.808 432.37 383.042 432.245 383.246C432.206 383.301 432.151 383.395 432.089 383.496C431.885 383.817 431.682 384.13 431.47 384.451L431.204 384.858C429.968 386.744 428.684 388.653 427.37 390.531C424.764 394.248 422.056 397.879 419.302 401.307C413.558 408.49 407.102 415.267 401.538 420.956L400.772 421.747C399.48 423.077 398.26 424.337 396.976 425.479C395.067 427.185 394.378 429.885 394.143 431.826C394.003 432.913 393.799 435.746 394.824 438.446C395.294 439.69 396.389 442.617 399.457 443.775C400.122 444.018 400.912 444.205 401.797 444.205C403.057 444.205 404.504 443.822 405.983 442.672C406.101 442.585 406.226 442.492 406.343 442.39L406.531 442.233C406.531 442.233 406.586 442.194 406.609 442.171L407.783 441.185C408.245 440.793 408.714 440.402 409.16 440.011C410.162 439.158 411.148 438.297 412.142 437.413C413.863 435.879 415.585 434.22 417.573 432.193C421.031 428.656 424.482 424.853 427.832 420.894C434.287 413.24 440.493 404.695 446.26 395.516C457.349 377.878 465.871 358.557 471.599 338.086C477.554 316.785 480.011 295.555 478.9 274.975L478.907 274.943Z" fill="#C59E98"/>
<path d="M326.345 45.1365C325.163 43.4853 324.443 42.6089 324.443 42.6089C324.639 42.8436 324.803 43.0941 324.952 43.3523C325.429 43.9314 325.883 44.5417 326.353 45.1443L326.345 45.1365Z" fill="#285331"/>
<path d="M345.439 98.1376C345.212 91.7286 344.304 85.3353 342.763 79.1142C342.763 79.1142 342.763 79.1142 342.763 79.1064C337.966 62.5401 329.984 50.2074 326.353 45.1444C325.891 44.5418 325.429 43.9393 324.952 43.3524C324.811 43.0942 324.639 42.8438 324.443 42.609C313.261 29.2198 298.096 18.2331 280.59 10.8459C266.379 4.84391 250.744 1.17383 235.383 0.234786C219.216 -0.751206 203.933 1.37729 189.957 6.57331C174.682 12.2467 162.224 21.8718 153.929 34.408C152.646 36.3565 151.527 38.1955 150.502 40.0423C149.891 41.1535 149.477 42.249 149.117 43.2115L149.07 43.3289C148.866 43.861 148.679 44.3853 148.483 44.9331C148.389 45.1835 148.303 45.4418 148.209 45.7L148.06 46.1069C147.99 46.2791 147.927 46.4512 147.88 46.6156C146.832 49.2058 146.996 52.4611 148.334 54.9183C149.438 56.945 151.37 58.1736 153.491 58.2049C155.408 58.2049 157.193 57.2815 158.358 55.6225C158.687 55.2391 158.961 54.8791 159.211 54.5505C159.329 54.394 159.446 54.2374 159.579 54.0731C159.791 53.8071 160.017 53.5332 160.237 53.2749C160.244 53.2671 160.284 53.2202 160.291 53.2123L160.385 53.1106C160.495 52.9854 160.604 52.8602 160.706 52.735C160.737 52.6959 160.777 52.6489 160.808 52.6098C161.035 52.3124 161.363 51.8742 161.661 51.3264C162.553 49.9805 163.414 48.6971 164.329 47.4842C166.27 44.9096 168.477 42.3821 170.902 39.9562C171.669 39.1893 172.475 38.4303 173.297 37.6947C173.321 37.6712 173.352 37.6477 173.375 37.6243L174.033 37.053C175.214 36.0514 176.505 35.0184 177.859 33.9855C180.41 32.0604 183.141 30.2919 185.974 28.7268C190.247 26.3714 194.77 24.4307 199.465 22.9517C199.739 22.8657 200.021 22.7796 200.302 22.6935L200.467 22.6466C200.607 22.6074 200.748 22.5605 200.866 22.5292C200.952 22.5057 201.046 22.4744 201.132 22.4509C201.187 22.4353 201.234 22.4274 201.288 22.4118C202.11 22.177 202.939 21.9579 203.792 21.7466C210.115 20.1659 216.9 19.2191 223.95 18.9373C230.782 18.6713 237.817 19.0391 244.852 20.0172C248.334 20.5024 251.817 21.1284 255.205 21.8953L255.721 22.0127C255.815 22.0362 255.948 22.0675 256.05 22.091L256.496 22.2005C256.715 22.2553 256.934 22.3022 257.153 22.3648C257.185 22.3648 257.208 22.3805 257.239 22.3883C259.814 23.0222 262.389 23.7343 264.908 24.5246C279.37 29.0477 292.594 36.0827 303.159 44.8783C306.946 48.032 310.428 51.3968 313.504 54.887C315.1 56.6946 316.618 58.5649 317.988 60.4273L318.363 60.9359C318.426 61.0298 318.488 61.1159 318.543 61.1942L318.661 61.3585C318.989 61.8202 319.31 62.2897 319.623 62.7671C321.352 65.3651 322.933 68.0961 324.31 70.8819C324.733 71.7506 325.156 72.6426 325.539 73.4956L325.805 74.0903C325.805 74.0903 325.805 74.106 325.813 74.1138C326.04 74.6538 326.259 75.1859 326.478 75.7571C327.198 77.6039 327.871 79.5289 328.474 81.4931C328.74 82.3774 328.99 83.2851 329.233 84.1772C329.272 84.3415 329.311 84.4824 329.35 84.5998L329.373 84.7171C330.086 87.6908 330.625 90.7427 330.97 93.7711C330.985 93.9197 331.001 94.1858 331.017 94.4127C331.032 94.6162 331.048 94.8197 331.079 95.0075C331.103 95.3987 331.134 95.79 331.173 96.1813C331.212 96.6351 331.252 97.089 331.275 97.5507C331.377 99.5462 331.4 101.565 331.338 103.561C331.338 103.607 331.338 103.654 331.338 103.701C331.338 103.78 331.338 103.858 331.33 103.936L331.244 105.486C331.173 106.511 331.072 107.559 330.962 108.584C330.845 109.602 330.719 110.525 330.579 111.425C330.477 112.098 330.359 112.763 330.219 113.491C330.203 113.554 330.195 113.616 330.179 113.687C329.726 115.831 329.256 117.709 328.755 119.43C328.497 120.33 328.207 121.222 327.91 122.107C327.738 122.607 327.566 123.093 327.394 123.57L327.167 124.165C327.143 124.219 327.12 124.282 327.096 124.337C326.361 126.184 325.539 128.007 324.67 129.728C323.849 131.348 322.894 133.031 321.744 134.885C321.736 134.901 321.72 134.917 321.712 134.932C321.689 134.964 321.673 134.987 321.65 135.018L321.212 135.684C320.969 136.036 320.726 136.388 320.468 136.756C319.905 137.562 319.302 138.375 318.621 139.252C316.368 142.132 313.707 144.941 310.475 147.844C308.855 149.3 308.057 149.965 306.406 151.326C305.084 152.406 303.636 153.572 301.844 154.981C298.291 157.79 295.333 160.146 292.352 162.751C284.949 169.215 279.886 175.741 276.865 182.714C274.846 187.386 273.54 192.378 273 197.535C272.976 197.762 272.953 197.989 272.929 198.216C272.773 198.192 272.616 198.169 272.468 198.145C271.583 198.005 270.668 197.778 269.697 197.543C268.696 197.292 267.655 197.042 266.512 196.839C264.087 196.416 261.512 196.463 259.078 196.987C256.402 197.551 254.188 198.756 252.278 200.673C251.59 201.369 250.948 202.183 250.306 203.161C250.173 203.138 250.032 203.122 249.899 203.099C249.344 203.013 248.71 202.919 248.045 202.856C244.656 202.551 241.424 203.639 238.686 206.01C237.715 206.855 236.847 207.786 236.088 208.608C235.391 209.359 234.734 210.071 234.155 210.541C233.004 211.48 231.651 212.223 230.109 212.748C224.162 214.79 216.516 212.935 210.624 208.013C207.807 205.666 205.076 202.559 202.04 198.255C199.183 194.209 196.883 190.32 195.216 186.697C193.666 183.34 193.064 179.818 193.369 175.921C193.549 173.574 192.023 170.898 189.151 170.498C186.624 170.139 184.315 171.805 183.791 174.325C182.586 179.952 182.875 185.547 184.659 190.946C186.428 196.291 189.057 201.369 191.405 205.619C197.939 217.521 205.835 225.166 214.857 228.328C218.441 229.588 222.088 230.221 225.602 230.221C227.268 230.221 228.904 230.081 230.492 229.791C235.947 228.813 240.564 226.262 244.617 222.005L245.102 221.488C245.564 220.995 246.323 220.174 246.691 219.978C247.098 219.947 247.81 220.08 248.506 220.205C249.563 220.401 250.885 220.635 252.356 220.573C254.571 220.479 256.582 219.642 258.139 218.17C259.078 217.294 259.634 216.363 260.057 215.635C260.174 215.463 260.284 215.283 260.393 215.126C260.534 214.931 260.675 214.735 260.823 214.547L260.878 214.493C260.878 214.493 260.949 214.422 260.988 214.383C261.035 214.352 261.082 214.328 261.129 214.305C261.129 214.305 261.129 214.305 261.136 214.305C261.371 214.258 261.653 214.219 261.982 214.195C262.897 214.117 263.633 214.117 264.259 214.18C265.245 214.281 266.293 214.563 267.506 214.892C268.25 215.095 269.009 215.299 269.799 215.479C272.248 216.034 275.496 216.504 278.83 215.197C282.398 213.804 284.894 210.439 285.865 205.697C286.162 204.226 286.311 202.841 286.459 201.502L286.475 201.346C286.53 200.822 286.6 200.29 286.686 199.71C286.71 199.515 286.741 199.319 286.772 199.131C286.796 199.038 286.819 198.936 286.835 198.842L286.874 198.654C286.898 198.529 286.913 198.411 286.929 198.286C287.257 196.721 287.641 195.109 288.212 193.685C288.314 193.435 288.47 193.043 288.549 192.879C289.057 191.674 289.652 190.477 290.294 189.35C290.497 188.99 290.716 188.638 290.928 188.278C290.928 188.278 290.935 188.262 290.943 188.254C290.959 188.231 290.974 188.207 290.99 188.184C290.99 188.184 290.998 188.168 291.006 188.16C291.084 188.043 291.162 187.926 291.194 187.871C291.209 187.855 291.217 187.832 291.233 187.816C291.734 187.073 292.266 186.337 292.829 185.617C294.754 183.136 297.18 180.617 300.224 177.94L301.14 177.134C301.14 177.134 301.171 177.103 301.202 177.08C301.249 177.04 301.304 176.994 301.343 176.962L301.883 176.508C302.626 175.89 303.37 175.28 304.129 174.669C305.436 173.621 306.75 172.588 308.065 171.555L308.855 170.929C315.249 165.913 322.495 160.232 328.333 152.907C340.086 138.164 346.167 118.726 345.447 98.1845L345.439 98.1376Z" fill="#285331"/>
</g>
<defs>
<clipPath id="clip0_2016_25">
<rect width="458.166" height="500" fill="white" transform="translate(21)"/>
</clipPath>
</defs>
</svg>
