<svg xmlns="http://www.w3.org/2000/svg" id="Laag_1" data-name="Laag 1" viewBox="0 0 573.44 626.96"><defs><style>.cls-1{fill:none}.cls-2{fill:#285331}.cls-3{fill:#c59e98}.cls-4{fill:#fff}</style></defs><path d="M306.88 422.68s-.01-.05-.02-.08c-.07-.11-.12-.17.02.08ZM306.88 422.69v-.01.02-.01z" class="cls-1"/><path d="M306.86 422.6s0 .01.01.02c-.1-.66-.06-.29-.01-.02ZM79 503.23c.56.77.02.01-.2-.28.07.09.14.19.2.28ZM306.92 422.77s-.03-.05-.04-.07c0 .01 0 .04.01.05 0 .02.01.04.02.04s.01-.01.01-.02ZM456.82 443.05c.02.18.06.34.11.37-.02-.01-.07-.19-.11-.37ZM333.88 231.29l.04-.06c-.01.02-.03.04-.04.06ZM307 423.51c.03-.08 0-.29-.05-.48.01.09.03.24.05.48ZM78.72 502.85s.04.06.07.09c-.03-.04-.06-.08-.07-.09ZM182.55 334.08v.04-.04ZM35.51 348.7c.07-.36.13-.66.18-.9l-.18.9ZM52.07 456.94s.02.03.02.05c-.04-.08-.07-.17-.11-.25-.06-.13-.11-.26-.16-.38l.25.58ZM52.39 457.68c-.09-.2-.16-.36-.22-.51-.03-.06-.05-.11-.08-.17.1.23.2.45.3.68ZM35.71 347.66s-.02.09-.02.13c0-.03.01-.06.02-.09.32-1.57.12-.62 0-.05ZM333.92 231.23c.07-.1.13-.2.2-.3-.03.05-.14.21-.19.28v.01ZM177.78 319.73c.02.05.03.09.05.14.17.43.26.56-.05-.13ZM177.73 319.58s.03.09.05.13c-.02-.05-.04-.09-.05-.14ZM306.92 422.77s-.02-.09-.05-.15c0 .03 0 .04.01.07.01.02.02.04.04.07ZM490.58 208.08c-.06.08-.11.17-.16.26.04-.06.09-.12.12-.18.01-.03.03-.05.04-.08ZM490.66 207.95s-.02.03-.04.05c-.01.03-.03.05-.04.08.03-.04.05-.09.08-.13ZM327.86 246.67q-.09.48 0 0ZM499.18 123a9.31 9.31 0 0 0-.22-.56c.07.18.12.33.17.46 0 .02.01.03.02.05 0 .02.01.04.02.06ZM504.66 146.5c0-.08-.02-.17-.03-.25.02.2.03.4.05.61 0-.12-.02-.24-.02-.36ZM504.69 146.86c0 .05 0 .11.01.16 0 .05.01.09.02.13-.02-.09-.02-.19-.03-.29ZM499.18 123s.02.06.04.1c.03.09.06.17.1.26.07.19-.04-.12-.13-.35ZM530.24 262.05c.08.07.07.06 0 0ZM394.02 101.13v-.05.05ZM561.14 315.8c-.01-.06-.03-.12-.04-.18 0 .03.01.06.02.09 0 .03.01.05.02.08v.01ZM491.57 108.02c.17.26.48.73.09.13-.03-.04-.06-.09-.09-.13ZM561.19 316.02c-.02-.08-.03-.16-.05-.22.01.07.03.15.05.22Z" class="cls-1"/><path d="M573.12 345.69c-.81-15.03-2.95-30.03-7.18-44.5-4.01-13.73-9.99-27.23-18.72-38.63-7.67-10.03-17.63-18.61-28.67-24.75-8.71-4.85-18.56-8.32-28.58-9.17 7.75-10.9 13.46-23.23 17.2-36.13 6.62-22.84 7.06-48.02.04-70.82-5.14-16.68-14.44-32.17-27.52-43.82-12.04-10.73-26.67-18.39-42.6-21.3a85.576 85.576 0 0 0-23.59-.99c-8.41.81-16.61 3.37-24.22 6.97-1.13.53-2.25 1.21-3.35 1.91 1.47 2.36 2.85 4.76 4.13 7.21.09-.02.19-.04.27-.07 1.78-.54 3.69-.95 5.54-1.21 3.89-.55 7.69-1.39 11.63-1.71 7.77-.63 15.45-.77 23.2.37 1.94.29 3.86.64 5.78 1.05.85.18 1.7.38 2.54.59.14.04.29.07.43.11.1.03.35.09.43.11.47.13.94.27 1.41.4 3.69 1.06 7.31 2.24 10.86 3.72a88.263 88.263 0 0 1 19.74 11.46c5.88 4.52 11.35 10.12 15.99 16.25 1.19 1.57 2.32 3.18 3.4 4.82.08.13.17.25.25.38.24.41.51.81.76 1.21.53.88 1.05 1.76 1.55 2.65 2.01 3.57 3.76 7.27 5.3 11.06-.05-.13-.1-.27-.17-.46.07.19.14.38.22.56.09.23.21.54.13.35.13.36.27.71.4 1.07.44 1.21.85 2.42 1.23 3.65.39 1.24.76 2.49 1.1 3.75.09.33 1.16 3.92 1 4.01.03-.02-.33-1.51-.11-.45.06.3.13.6.19.9a106.249 106.249 0 0 1 1.08 6.31c.17 1.21.31 2.42.44 3.64v.01l.03.25c0 .12.02.24.02.36 0 .1.02.2.03.29 0-.05-.01-.09-.02-.13.04.59.09 1.18.12 1.77.16 2.74.22 5.49.18 8.23 0 .61-.03 1.22-.04 1.82 0 .08-.01.17-.02.25a118.174 118.174 0 0 1-1.3 12.29c-.09.59-.26 1.21-.3 1.81.15-2.2-.03.09-.13.61a123.513 123.513 0 0 1-2.74 11.19c-.34 1.17-.7 2.33-1.08 3.49-.15.45-.74 2.13-.1.32-.23.63-.44 1.27-.67 1.91-1.6 4.41-3.47 8.72-5.6 12.89-.52 1.01-1.05 2.01-1.6 3-.26.47-.53.94-.8 1.41.01-.02.02-.03.04-.05-.03.04-.05.09-.08.13-.01.03-.03.05-.04.08-.03.06-.08.12-.12.18-.13.22-.25.44-.37.65-1.21 2-2.49 3.95-3.83 5.86-2.7 3.85-5.67 7.5-8.89 10.93a104.35 104.35 0 0 1-5.06 5.03c-.94.87-1.24 2.6-1.44 3.78-.29 1.65-.37 3.44-.06 5.1.22 1.17.52 2.35 1.05 3.43.36.73 1.58 2.48 2.71 2.23 8.29-1.89 16.86-1.54 25.1.45 10.8 2.85 20.79 8.36 29.48 15.33.25.2.5.4.75.61.05.04.13.1.2.17.51.43 1.01.86 1.51 1.31a91.406 91.406 0 0 1 8.91 9.03c1.75 2.04 3.41 4.16 4.96 6.35.21.29.41.59.61.88 0 0 .17.26.29.44.11.18.28.43.28.43.19.3.38.59.56.89.84 1.35 1.64 2.72 2.41 4.11a110.765 110.765 0 0 1 5.38 11.08c.12.29.24.59.37.88.63 1.64 1.26 3.27 1.83 4.93 1.07 3.06 2.02 6.15 2.87 9.28.38 1.4.74 2.8 1.08 4.21 0-.03-.01-.06-.02-.09.01.06.03.12.04.18.01.06.03.14.05.22.07.3.14.6.2.9.19.87.37 1.73.55 2.6 1.28 6.33 2.16 12.72 2.79 19.15l.06.66.18 2.31c.1 1.42.18 2.83.25 4.25a211.775 211.775 0 0 1 .13 17.25c-.02.69-.16 3.4 0 .38l-.09 1.94c-.08 1.55-.18 3.11-.3 4.66-.42 5.71-1.07 11.4-1.91 17.07-.2 1.36-.42 2.71-.64 4.06-.12.71-.24 1.42-.37 2.12-.08.45-.35 1.82-.35 1.87-.49 2.45-.98 4.9-1.52 7.34a255.28 255.28 0 0 1-4.39 16.78c-.83 2.78-1.7 5.54-2.62 8.29-.46 1.38-.93 2.75-1.42 4.12-.22.62-.44 1.24-.67 1.87-.01.04-.02.06-.03.09-.01.03-.02.05-.03.09-.16.43-.32.87-.48 1.3-2.07 5.51-4.32 10.95-6.74 16.31-4.8 10.62-10.29 20.92-16.33 30.89-.76 1.25-1.52 2.49-2.3 3.72-.21.34-.42.67-.64 1.01-.02.03-.06.09-.1.16-.4.63-.81 1.25-1.22 1.88-1.63 2.49-3.3 4.96-5 7.4-3.36 4.8-6.87 9.5-10.54 14.08-7.19 8.99-15.05 17.33-23.09 25.55-2 2.05-3.99 4.16-6.13 6.06-1.03.92-1.51 3.15-1.66 4.39-.22 1.74-.1 3.93.53 5.59.44 1.17 1.11 2.81 2.38 3.29 1.22.45 2.01.03 2.95-.81-.82.72.13-.1.26-.2l1.49-1.25c.58-.49 1.16-.98 1.73-1.47 1.25-1.07 2.49-2.15 3.72-3.24 2.3-2.05 4.49-4.19 6.64-6.39 4.44-4.54 8.71-9.26 12.81-14.11 8.45-10.02 16.09-20.67 23.06-31.76 13.95-22.19 24.62-46.57 31.68-71.81 7.13-25.49 10.55-52.24 9.12-78.71Zm-81.55-237.67s.06.09.09.13c.39.6.08.13-.09-.13Zm38.67 154.03c.07.06.08.07 0 0Z" class="cls-3"/><path d="M561.14 315.79s-.01-.05-.02-.08c.31 1.77.18.89.07.31-.02-.07-.03-.15-.05-.22v-.01ZM490.62 208c-.52.71-.37.57-.21.33.05-.09.11-.17.16-.26.01-.03.03-.05.04-.08ZM499.18 123s-.02-.04-.02-.06c0-.02-.01-.03-.02-.05.09.25.15.39.18.46-.03-.09-.06-.17-.1-.26-.01-.03-.02-.06-.04-.1ZM504.63 146.25c-.07-.43-.19-.74.07.76 0-.05 0-.11-.01-.16-.02-.2-.04-.41-.05-.61Z" class="cls-3"/><path d="M377.16 52.3c-14.27-17.09-33.32-30.28-53.77-38.91-17.64-7.45-36.69-11.93-55.8-13.1-18.86-1.15-37.85 1.14-55.6 7.73-17.39 6.46-32.82 17.68-43.12 33.25-1.46 2.21-2.85 4.47-4.13 6.78-.6 1.09-1.03 2.26-1.47 3.43-.25.66-.49 1.32-.73 1.98-.19.52-.37 1.04-.56 1.57-.01.03-.43 1.03-.14.45-.83 1.67-.75 4.17.14 5.8.77 1.41 2.01 1.42 2.77.12.59-.64 1.08-1.36 1.63-2.05.31-.39.63-.78.95-1.16.17-.21.36-.41.53-.62.28-.37 1.09-1.67.49-.76 1.3-1.96 2.59-3.91 4-5.78 2.73-3.62 5.74-7.04 8.95-10.25a79.96 79.96 0 0 1 3.37-3.18l.03-.03c.03-.02.04-.04.09-.07l.87-.75c1.68-1.43 3.41-2.81 5.16-4.14 3.52-2.66 7.23-5.06 11.09-7.19a99.693 99.693 0 0 1 18.29-7.83c.46-.15.93-.29 1.39-.43.05-.01.44-.13.54-.16.2-.06.41-.12.61-.17 1.12-.32 2.25-.62 3.39-.9 8.83-2.21 17.89-3.4 26.98-3.76 9.27-.36 18.58.15 27.77 1.43 4.61.64 9.2 1.47 13.74 2.49l.66.15c.08.02.53.12.57.13.49.12.98.23 1.47.36a168.618 168.618 0 0 1 10.16 2.83c18.48 5.78 36.24 14.9 50.93 27.13 4.95 4.12 9.62 8.6 13.88 13.43 2.13 2.41 4.16 4.91 6.07 7.5l.5.68c0 .01.32.44.44.61.45.64.89 1.28 1.32 1.93A99.82 99.82 0 0 1 387 81.89c.58 1.18 1.14 2.37 1.68 3.57.11.25.23.51.34.76 0 .02 0 .02.02.04.32.77.64 1.54.94 2.32 1 2.55 1.9 5.15 2.7 7.77.38 1.25.73 2.52 1.07 3.78 0 .04.06.21.12.41 0 .02.02.1.06.28a104.91 104.91 0 0 1 2.17 12.29c.06.48.17 2.9.11.93.05 1.42.23 2.84.3 4.26.14 2.72.17 5.44.09 8.16 0 .29-.02.58-.03.87-.04.61-.07 1.22-.11 1.83-.1 1.41-.23 2.82-.39 4.23-.15 1.29-.32 2.57-.52 3.85a75.89 75.89 0 0 1-.48 2.78c-.02.12-.05.24-.07.36-.56 2.64-1.19 5.26-1.95 7.85-.36 1.24-.75 2.47-1.17 3.69-.23.67-.46 1.33-.7 1.99l-.21.57c-.09.22-.19.48-.23.56-1 2.51-2.11 4.98-3.33 7.39-1.23 2.42-2.58 4.76-4.01 7.07-.04.06-.07.12-.1.16-.03.04-.05.08-.09.13l-.59.89c-.33.49-.67.98-1.01 1.46-.82 1.17-1.67 2.31-2.55 3.44-3.33 4.26-7.1 8.13-11.12 11.74-2.15 1.94-3.27 2.87-5.41 4.63-1.95 1.6-3.93 3.18-5.91 4.74-4.02 3.18-8.04 6.37-11.91 9.74-7.5 6.55-14.23 14.14-18.23 23.37-2.37 5.48-3.86 11.29-4.49 17.23-.07.62-.12 1.25-.17 1.88-.04.48-.01 1.19-.12 1.75a.92.92 0 0 0-.11.26c-.03.11-.17.49-.22.63-.05.09-.09.18-.11.23-.2.23-.5.54-.45.54-.36.27-.77.49-1.18.67-.22.1-.68.21-1.31.28-1.31.14-2.63 0-3.92-.21-2.61-.42-5.04-1.22-7.69-1.69-2.34-.41-4.89-.35-7.22.15-2.26.48-4.03 1.41-5.66 3.05-.68.69-1.26 1.47-1.79 2.28-.4.61-.78 1.23-1.15 1.85-.05.08-.42.6-.35.53-.02.02-.04.05-.06.07-.04.02-.09.06-.17.11-.01 0-.44.16-.48.2-.14.03-.27.05-.4.06-.61.07-1.22.03-1.83-.02-1.34-.12-2.66-.41-4-.53-2.86-.26-5.34.73-7.49 2.59-2.09 1.81-3.92 4.27-5.93 5.9-2.08 1.7-4.48 2.98-7.02 3.85-10.46 3.59-22.48-.26-30.69-7.12-4.65-3.88-8.55-8.69-12.03-13.62-3.48-4.93-6.74-10.24-9.27-15.72-2.45-5.31-3.35-10.91-2.89-16.74.02-.26-.28-.85-.39-.32-1.31 6.1-1.02 12.17.94 18.1 2.03 6.15 5.06 12.08 8.18 17.74 5.97 10.87 14.56 21.99 26.7 26.25 5.38 1.89 11.29 2.65 16.93 1.63 5.89-1.06 10.66-3.87 14.76-8.18 1.71-1.8 3.53-4.07 6.15-4.4 2.64-.34 5.2.82 7.83.71 1.37-.06 2.57-.53 3.56-1.46.6-.56.99-1.24 1.41-1.96.02-.04.03-.06.05-.08.2-.31.4-.62.61-.92.31-.44.63-.87.97-1.28.13-.15.73-.71.77-.79.68-.51 1.39-.92 2.19-1.22.06-.02.1-.04.13-.05.04 0 .07-.01.13-.03.17-.04.34-.08.52-.11.57-.11 1.15-.18 1.73-.23 1.32-.11 2.69-.15 4.01-.01 2.65.27 5.08 1.16 7.8 1.78 2.69.61 5.41.93 8.04-.1 3.13-1.22 4.66-4.68 5.29-7.75.34-1.66.51-3.31.69-4.99.08-.75.18-1.51.29-2.26.05-.37.11-.73.17-1.1.03-.2.07-.4.1-.6.51-2.51 1.11-5.08 2.07-7.46.15-.37.39-.95.46-1.11a49.488 49.488 0 0 1 2.55-5.16c.31-.54.63-1.07.95-1.6-.01.02-.02.03-.04.06.01-.02.03-.04.04-.06v-.01c.05-.08.15-.23.19-.28.09-.14.18-.28.28-.42a53.35 53.35 0 0 1 2.28-3.14c3.03-3.9 6.54-7.39 10.24-10.65l1.19-1.04c.07-.06.1-.09.14-.12.04-.03.08-.07.15-.13l.73-.61c.98-.82 1.97-1.63 2.97-2.43 2.02-1.62 4.06-3.22 6.09-4.82 8.54-6.7 17.1-13.52 23.9-22.05 14.76-18.51 21.39-42.5 20.57-65.98-.59-16.76-4.9-33.14-12.59-47.86-1.28-2.45-2.66-4.85-4.13-7.21-2.64-4.23-5.55-8.3-8.78-12.16Zm-49.3 194.37q-.09.48 0 0Zm66.16-145.54v-.05.05Z" class="cls-2"/><path d="M333.92 231.23c.2-.29.23-.35.2-.31-.06.1-.13.2-.2.3ZM331.6 148c6.63-7.24 11.58-15.63 15.53-24.58 4.06-9.18 6.44-19.15 6.65-29.2.05-2.53-.18-5.05-.53-7.55-.12-.86-.69-3.11-1.99-2.69-1.32.42-1.42 2.73-1.42 3.8 0 .56-.01 1.12-.03 1.68v.19c-.03.51-.03 1.01-.05 1.51 0 0 0 .21-.01.4 0 .13-.02.4-.02.47-.04.68-.07 1.35-.11 2.03-.13 2.19-.38 4.36-.72 6.52-.02.1-.03.2-.04.26-.06.3-.11.6-.17.9l-.3 1.44c-.26 1.2-.56 2.39-.89 3.57-.15.53-.3 1.06-.46 1.59-.07.24-.14.47-.22.7-.02.07-.08.24-.12.38-.36 1.07-.74 2.13-1.16 3.18-1.73 4.41-3.49 7.75-5.99 11.5-2.56 3.84-5.45 7.44-8.5 10.91-6.02 6.85-12.91 12.56-20.99 17.37-8.79 5.24-18.47 9.15-28.34 11.75-20.93 5.51-43.09 5.92-64.54 4.03-23-2.03-46.23-6.35-69.27-2.37-10.57 1.83-20.98 5.5-29.9 11.55-8.74 5.93-15.5 14.05-20.32 23.41-1.22 2.38-2.15 4.79-2.92 7.35-.31 1.02-.21 2.45.3 3.4.32.61 1.14 1.19 1.66.4 2.6-3.96 5.11-7.96 8.24-11.54 3.07-3.51 6.6-6.64 10.31-9.45 8.34-6.33 18.09-10.11 28.28-12.22 23.06-4.76 46.52-.41 69.56 2.13 21.89 2.42 44.08 2.67 65.59-2.67 10.57-2.62 20.89-6.43 30.33-11.9 8.4-4.86 16.02-11.1 22.57-18.26Z" class="cls-2"/><path d="M26.99 278.32c1.24-2.6 1.03-5.79-.2-8.34-6.22-12.86-11.75-25.92-15.49-39.73-.42-1.55-.84-3.11-1.2-4.68-.04-.19-.09-.39-.11-.47l-.3-1.33c-.2-.89-.39-1.78-.57-2.67a149.935 149.935 0 0 1-2.36-15.72v-.11c-.03-.45-.07-.9-.11-1.36-.07-.9-.12-1.81-.17-2.71-.2-3.63-.25-7.26-.15-10.89 0-.29.02-.58.03-.86v-.14c.05-.79.09-1.59.14-2.38.11-1.54.25-3.08.42-4.61.16-1.41.34-2.82.54-4.22.11-.77.24-1.53.36-2.29.07-.36.13-.73.2-1.09.59-3.04 1.3-6.06 2.14-9.04.38-1.37.79-2.73 1.23-4.08.11-.34.21-.69.33-1.02.03-.08.06-.15.07-.19.25-.73.52-1.46.79-2.18 1.06-2.83 2.23-5.61 3.52-8.34.63-1.33 1.29-2.65 1.97-3.96.3-.57.6-1.13.91-1.69.12-.22.24-.43.36-.65-.07.13.46-.8.55-.95 3.05-5.15 6.56-10.02 10.53-14.5a91.917 91.917 0 0 1 4.34-4.55c.05-.04.06-.06.09-.08.04-.04.08-.07.14-.13.37-.35.74-.69 1.12-1.04 2.17-1.99 4.43-3.87 6.8-5.62 5.25-3.89 10.97-7.14 16.93-9.8 12-5.36 24.9-8.25 37.92-9.98 29.09-3.85 58.73-1.38 87.61-7.13 23.75-4.73 48.19-15.62 61.71-36.69.79-1.23 1.53-2.49 2.26-3.76.87-1.54 1.48-3.26 2.11-4.91.41-1.08.43-2.46 0-3.54-.28-.71-.86-1.47-1.55-.66-.85 1.01-1.84 1.9-2.62 2.94-.85 1.14-1.77 2.23-2.71 3.29-1.84 2.07-3.77 4.09-5.82 5.95-4.25 3.87-9.02 7.26-13.97 10.18-10.29 6.09-21.61 10.42-33.26 13.02-29.2 6.53-59.45 4-89.03 7.14-13.48 1.43-26.91 4.05-39.61 8.91-12.26 4.7-23.35 11.69-32.56 21.07C12.47 130.96 2.75 156.54.53 181.69c-2.66 30.16 4.9 60.15 17.41 87.42 1.45 3.15 2.97 6.26 4.61 9.31.42.78 1.28 1.7 2.26 1.67.98-.02 1.8-.98 2.18-1.78ZM295.07 394.38c.02.05.05.13.11.25-.04-.08-.07-.17-.11-.25ZM177.78 319.71l.06.15c-.02-.05-.03-.09-.05-.14ZM35.69 347.8s.01-.06.02-.09c0 .03-.01.06-.02.09Z" class="cls-2"/><path d="M446.49 568.98c-11.82 7.92-24.56 14.65-37.54 20.44-12.9 5.76-26.35 10.35-40.04 13.83a279.839 279.839 0 0 1-42.13 7.34c-14.27 1.37-28.58 1.88-42.91 1.16-14.33-.72-28.59-2.33-42.66-5.17-1.63-.33-3.26-.68-4.89-1.04a268.5 268.5 0 0 1-43.68-13.96 278.629 278.629 0 0 1-38.55-19.69 279.51 279.51 0 0 1-19.75-13.31c-17.42-13.02-33.31-28.06-47.13-44.86a267.756 267.756 0 0 1-7.28-9.26c-.38-.5-.74-1.05-1.14-1.54-.17-.23-.34-.46-.51-.7-3.18-4.39-6.22-8.87-9.12-13.44a245.497 245.497 0 0 1-15.41-28.16c-.54-1.15-1.06-2.31-1.58-3.48.06.15.13.31.22.51-.1-.23-.2-.45-.3-.68 0-.02-.02-.03-.02-.05-.1-.23-.25-.57-.25-.58-.24-.55-.48-1.11-.71-1.67-1.05-2.49-2.07-4.99-3.04-7.51a236.88 236.88 0 0 1-5.18-14.92c-.8-2.58-1.55-5.17-2.26-7.77-.35-1.29-.81-2.6-1.03-3.92 0-.02.6 2.41.27 1.09l-.24-.98c-.17-.72-.35-1.44-.52-2.16-1.24-5.23-2.29-10.52-3.14-15.83-.42-2.59-.78-5.19-1.1-7.8-.16-1.27-.3-2.54-.43-3.82l-.03-.3c-.05-.53-.1-1.07-.14-1.6-.45-5.39-.7-10.8-.72-16.21-.01-2.72.03-5.43.12-8.15v-.25c.01-.29.03-.59.05-.88.08-1.27.17-2.54.29-3.8.21-2.35.49-4.7.83-7.04.17-1.2.37-2.4.58-3.59l.27-1.47c-.05.24-.11.54-.18.9l.18-.9c0-.04.02-.09.02-.13.11-.58.31-1.52 0 .05 0-.03.01-.05.02-.08.99-4.74 2.23-9.42 3.77-14.01.32-.96.66-1.91 1.01-2.86.04-.1.08-.21.12-.31.24-.62.49-1.23.74-1.84.9-2.16 1.87-4.3 2.91-6.39 1.07-2.14 2.21-4.25 3.43-6.31.3-.51.61-1.02.93-1.53.07-.11.14-.22.21-.34.66-1 1.32-2 2.02-2.97 2.74-3.86 5.79-7.5 9.13-10.85 1.46-1.46 2.98-2.85 4.53-4.21 4.59-3.82 9.56-7.12 14.86-9.89 6.3-3.3 12.81-6.22 19.63-8.24 8.91-2.41 18.12-2.96 27.18-1.01 7.02 1.72 13.8 4.47 20.09 8.02 3.16 1.79 6.15 3.8 9.06 5.97.15.11.43.33.59.46.35.28.7.56 1.04.85.69.57 1.37 1.15 2.04 1.75a77.023 77.023 0 0 1 11.13 12.16c.15.21.3.41.45.62 0 0 0 .01.01.02.02.03.04.05.05.07.14.21.29.42.43.64.54.8 1.06 1.62 1.56 2.44 1.04 1.7 2.02 3.45 2.93 5.23.46.89.9 1.78 1.32 2.69.21.45.42.9.62 1.36.09.19.17.38.25.57-.02-.04-.03-.08-.05-.13.02.05.04.09.05.14.31.69.22.56.05.13.65 1.78 1.42 3.52 2.04 5.31.68 1.95 1.3 3.93 1.86 5.92.27.96.53 1.93.78 2.9l.12.49c.1.43.2.85.29 1.27.9 4.01 1.6 8.06 2.15 12.13.28 2.06.51 4.13.72 6.2.04.44.08.88.11 1.32.09 1.08.17 2.17.24 3.25.58 8.67.65 17.35.67 26.04.04 18.84-.13 37.88 3.56 56.45 2.91 14.66 8.2 28.81 15.74 41.72 7.2 12.31 16.25 23.45 26.99 32.83 10.62 9.28 22.62 16.95 35.68 22.31 13.49 5.54 28.1 8.65 42.66 9.31 14.93.67 29.84-1.31 44.15-5.54a131.75 131.75 0 0 0 20.75-8.09c3.31-1.63 6.58-3.37 9.68-5.36 3.19-2.04 6.51-4.15 9.39-6.63 2.79-2.4 5.64-4.74 8.33-7.27 1.13-1.07 1.05-3.53.7-4.87-.2-.78-1.18-3.16-2.42-2.19-7.25 5.67-15.16 10.43-23.32 14.66-8.18 4.23-16.84 7.61-25.75 9.96-17.95 4.75-36.93 5.74-55.25 2.64-17.75-3-34.28-10.51-49.09-20.71-1.82-1.25-3.58-2.59-5.32-3.95-.05-.04-.08-.06-.1-.08-.03-.03-.05-.04-.09-.07-.19-.15-.38-.31-.57-.46l-1.14-.93c-.94-.78-1.88-1.58-2.8-2.38a135.8 135.8 0 0 1-9.53-9.21c-3.02-3.22-5.88-6.6-8.6-10.07a124.76 124.76 0 0 1-4.25-5.75 145.82 145.82 0 0 1-2.78-4.24c-2.34-3.72-4.49-7.55-6.45-11.48-.98-1.97-1.9-3.96-2.77-5.97-.08-.17-.15-.35-.23-.52-.19-.47-.39-.94-.58-1.42a122.726 122.726 0 0 1-5.07-15.65c-.02-.07-.06-.26-.1-.42-.11-.48-.22-.95-.32-1.43-.3-1.38-.58-2.76-.83-4.15-.52-2.84-.95-5.69-1.31-8.56-.17-1.35-.32-2.71-.46-4.06-.01-.13 0-.71-.08-.91l-.18-2.19c-.21-2.88-.37-5.77-.48-8.65-.23-5.87-.27-11.75-.28-17.63 0-11.17.15-22.34-.48-33.49-1.23-21.8-5.12-44.32-17.03-63.03-10.44-16.39-26.37-29.12-44.88-35.2-10.3-3.38-20.9-4.11-31.49-1.75-10.24 2.28-20.33 6.49-29.36 11.82-15.79 9.31-27.87 23.85-35.58 40.36-8.32 17.81-11.68 37.21-12.03 56.75-.37 20.85 2.42 41.72 7.76 61.85 5.12 19.26 12.82 37.85 22.39 55.32 9.56 17.45 21.13 33.84 34.3 48.75 13.44 15.22 28.65 28.77 45.09 40.67 16.36 11.84 34.03 21.9 52.62 29.81 19.77 8.41 40.54 14.43 61.73 17.95 19.78 3.28 39.82 4.2 59.82 2.85 20.37-1.37 40.46-5.19 60.02-11a297.664 297.664 0 0 0 55.66-22.9c8.64-4.63 16.89-9.83 25.03-15.28 1.56-1.04 1.76-3.6 1.43-5.28-.2-.99-1.2-3.99-2.81-2.91ZM182.56 334.12v-.04.04ZM78.78 502.93s-.04-.06-.07-.09c.01.01.04.04.07.09Zm.22.3a4.85 4.85 0 0 1-.2-.28c.22.29.76 1.05.2.28Z" class="cls-2"/><path d="M52.09 457c.03.06.05.11.08.17-.26-.61-.35-.81-.35-.8.06.13.11.26.16.38.04.08.07.17.11.25Z" class="cls-2"/><path d="M471 314.47a1.68 1.68 0 0 0-.2-.27c.07.11.13.22.2.28ZM300.19 382.68s0 .03-.01.06c.04-.13.07-.27.11-.41-.03.06-.08.22-.1.35ZM471.02 314.49s0-.01-.01-.02ZM300.17 382.8s0-.02.01-.04v-.03c0 .02 0 .04-.02.06ZM478.71 375.71c.05-.16.11-.33.17-.49-.03.07-.06.14-.08.21-.03.09-.05.16-.09.27ZM300.23 383.45s.04.1.06.14c-.02-.07-.05-.15-.09-.24 0 .04.02.07.02.1ZM300.33 383.69s-.02-.05-.02-.08v-.02c.02.04.03.08.03.1ZM300.19 383.28s.02.05.02.07c0-.03-.02-.07-.03-.1v.04ZM313.68 432.24c.15.39.08.19 0 0ZM312.91 430.06c.02.09.03.15.03.15s0-.07-.03-.15ZM478.88 375.23v-.02c.03-.07.05-.16.08-.23-.01.03-.02.06-.03.1-.02.05-.04.1-.05.16ZM312.89 430c-.08-.28-.21-.67 0 0ZM303.98 409.19c-.05.21-.11.42-.12.42.08 0 .12-.24.12-.42ZM303.88 407.98c.02.07.04.14.05.21 0 0 .01.02.02.03-.01-.2-.06-.26-.07-.24ZM303.89 408.11v.02c-.01-.13-.02-.11 0-.02Z" class="cls-4"/><path d="M306.87 422.62s0-.01-.01-.02c0 .03.01.06.02.08v.01c0-.03 0-.05-.01-.07Z" class="cls-2"/><path d="M488.45 343.36c-1.8-16.48-8.18-32.62-18.52-45.61-10.57-13.27-25.26-22.57-41.63-26.86-9.14-2.39-18.54-3.36-27.97-2.73-9.46.63-18.81 2.69-27.72 5.93-8.91 3.24-17.63 7.73-25.2 13.47-3.97 3.01-7.68 6.44-10.76 10.37-2.89 3.69-5.34 7.75-7.47 11.93-4.08 8.02-6.88 16.59-9.96 25.02-1.54 4.22-3.14 8.41-5 12.5a86.25 86.25 0 0 1-3.05 6.08c-.25.45-.51.91-.77 1.35-.13.22-.26.45-.4.67-.04.06-.16.26-.24.39-.6.97-1.23 1.92-1.89 2.86-2.74 3.9-6.26 7.25-8.74 11.31-1.73 2.84-3.12 5.81-3.85 8.94a81.318 81.318 0 0 0-5.81-9.01c-7.79-10.48-18.34-18.9-28.88-26.49-5.64-4.06-11.62-7.66-18.11-10.2-3.23-1.26-6.77-2-10.2-2.4-1.64-.19-3.27-.33-4.92-.17-.84.08-1.73.12-2.54.36-.93.29-1.87.73-2.78 1.1-1.25.51-1.21 4.58.12 4.97.89.27 1.77.57 2.63.9.9.34 1.91.44 2.86.69 1.82.48 3.67.83 5.47 1.39 3.57 1.12 7.03 2.69 10.38 4.33 6.89 3.37 13.27 7.86 19.35 12.5 6.24 4.76 12.33 9.75 17.73 15.45 2.64 2.79 5.1 5.75 7.31 8.89.28.4.55.8.83 1.2.03.04.05.08.07.11.09.13.17.27.26.4.53.82 1.03 1.65 1.53 2.49.95 1.62 1.84 3.27 2.67 4.96.4.81.78 1.63 1.16 2.45.17.38.34.76.5 1.15.05.11.09.22.14.33-.05-.12 0-.04.11.25a76.76 76.76 0 0 1 1.88 5.34c.27.87.53 1.74.77 2.61.11.4.22.81.32 1.22.07.27.13.54.2.81.19.73.12.11.01-.12.13.17.23.58.3 1.05-.05.26-.1.52-.14.78-.45 2.99-.01 6.29 1.42 8.99.09 1.48.14 2.97.14 4.45 0 .82-.02 1.64-.05 2.46 0 .08 0 .16-.01.24-.03.56-.07 1.11-.12 1.67-.16 1.9-.4 3.8-.69 5.69-.06.42-.13.84-.2 1.26l-.03.2c-.31.88-.39 1.94-.61 2.86-.44 1.87-.95 3.72-1.52 5.54-1.07 3.39-2.48 6.74-4.17 10.14-.84 1.68-1.67 3.36-2.58 5-.46.82-.93 1.63-1.42 2.43-.26.43-.53.86-.8 1.29-.01.02-.02.03-.03.05-.14.21-.28.43-.42.64-.24.36-.49.72-.73 1.08-.28.43-.56.87-.84 1.3.01-.02-.16.25-.22.34-.44.68-1.03 1.44-1.62 2.17-1.32 1.62-2.39 3.35-3.46 5.14-.2.34-.39.68-.56 1.03-3.18-2.67-6.43-5.25-9.62-7.85-3.86-3.15-7.82-6.15-11.78-9.17 3.47-5.14 6.82-10.53 9.37-16.18 2.61-5.79 4.24-12.29 2.91-18.62-1.11-5.3-4.02-10.17-8.86-12.84-4.18-2.3-9.16-2.31-13.2.3-3.18 2.05-5.26 5.04-6.34 8.42-1.92-1.71-4.4-2.78-7.01-2.85-4.37-.11-8.13 3.02-9.76 6.91-4.45 10.61 3.68 20.08 11.3 26.48 3.66 3.07 7.54 5.86 11.25 8.87 4.36 3.53 8.49 7.31 12.89 10.79 4.13 3.27 8.17 6.63 12.22 10 3.88 3.23 7.76 6.47 11.36 10.01 1.99 1.96 3.81 4.04 5.64 6.15 1.38 1.59 2.87 3.09 4.35 4.58 4.45 5.19 8.59 10.57 12.49 16.04 1.19 1.67 2.35 3.36 3.45 5.08.73 1.14 2.19 2.09 3.26.71 6.1-7.84 13.52-14.61 22.32-19.28 4.35-2.31 8.93-4.26 13.77-5.29 4.89-1.04 9.8-1.55 14.79-1.5 2.72.02 5.37.68 8.07.72 1.33.02 2.47.23 3.73.64 1.18.39 2.41.47 3.63.71.23.04.14-.5.07-.58-.86-1.06-1.72-2.19-2.79-3.03-1.14-.89-2.38-1.63-3.53-2.51-2.14-1.65-4.5-2.6-7.06-3.41-4.95-1.56-10.41-2.21-15.57-1.46-5.1.75-10.27 2.27-14.87 4.61-4.78 2.44-9.15 5.56-13.22 9.04-3.84 3.28-7.33 6.97-10.61 10.82-3.88-6.09-8.23-11.82-12.94-17.32-2.63-3.08-5.36-6.08-8.15-9.02-1.43-1.51-2.91-2.98-4.34-4.5-.36-.38-.71-.76-1.06-1.14.81-.97 1.68-1.89 2.56-2.78 2.28-2.32 4.06-5.17 5.8-7.9 3.55-5.58 6.13-11.66 8.1-17.97 2.43-7.77 3.64-15.92 3.7-24.08l.03.03c.07.07.27.32.34.4.07.12.14.23.21.35-.14-.25-.08-.19-.02-.08-.05-.27-.09-.64.01.02.03.06.06.12.05.15-.02-.03-.03-.05-.04-.07.01.02.03.05.04.07 0 .01 0 .02-.01.02l-.02-.04c.01.05.02.12.04.19v.19c.01.21.02.42.02.63.06 2.67-.11 5.27.3 7.92 1.47 9.62 8.17 17.8 16.63 22.3 9.4 5 20.32 5.84 30.76 6.29 5.65.24 11.24.3 16.88-.19 4.93-.43 10.07-1.06 14.94.19 1.16.3 2.27.79 3.42 1.08.91.23 1.82.62 2.66 1.05 1.6.81 3.17 1.61 4.41 2.96.39.43.83.12 1.05-.29.22-.41.26-.93.21-1.42-.02-.22-.06-.43-.12-.61-1.42-4.54-4.52-8.94-8.86-11.08-4.76-2.35-10.04-2.81-15.27-2.89-5.4-.09-10.77-.46-16.16-.64-5.38-.18-10.77-.43-16.11-1.09-4.82-.6-9.54-1.39-14.07-3.19-2.11-.84-4.15-1.87-6.05-3.12-1.5-.99-2.94-2.21-4.4-3.76-.63-.67-1.24-1.38-1.79-2.12-.06-.09-.46-.67-.55-.82-.33-.52-.62-1.06-.9-1.61-.1-.19-.19-.39-.29-.58 0-.01 0-.02-.01-.03-.18-.46-.35-.91-.51-1.38-.08-.23-.14-.46-.21-.69-.08-.42-.28-1.52-.3-1.65 0-.02 0-.04-.01-.06v-.5c-.01-.55 0-1.11 0-1.66.02-1.26.06-2.52-.04-3.78-.27-3.36-1.05-6.52-3.24-9.17-1.37-1.65-3.29-2.68-4.76-4.22-.11-.12-.22-.24-.33-.37 0-.01-.02-.04-.05-.07.04-.09.08-.19.12-.28.17-.39.36-.78.54-1.17.49-1.07.95-2.17 1.3-3.29.96-3.09.89-6.43-.03-9.52-.7-2.38-1.99-4.5-3.34-6.56-.61-.93-1.2-1.87-1.75-2.83-.25-.43-.5-.86-.74-1.29s.01.05.02.08c0-.02-.02-.06-.03-.1-.02-.04-.04-.1-.06-.14 0-.03-.02-.06-.02-.1 0-.02-.02-.05-.02-.07v-.04c-.02-.06-.03-.12-.04-.17v-.05c.02-.1.03-.2.05-.26 0 .01 0 .02-.01.04 0-.02.01-.04.02-.06 0-.03.01-.05.01-.06.02-.13.07-.29.1-.35.02-.09.04-.18.07-.26.05-.17.1-.34.16-.5.03-.06.14-.29.21-.44.57-1.09.65-1.21 1.43-2.26.69-.92 1.36-1.84 2.07-2.74 2.78-3.55 5.79-6.84 8.23-10.66 2.48-3.87 4.61-7.93 6.47-12.13 3.55-8.03 6.16-16.42 9.34-24.6 1.59-4.1 3.32-8.16 5.37-12.05a80.742 80.742 0 0 1 1.82-3.27c.08-.13.22-.35.24-.4.31-.5.62-.99.94-1.48 1.24-1.88 2.57-3.7 4.02-5.42 5.97-7.08 14.09-12.49 22.42-16.47 16.49-7.87 35.14-10.71 53.26-8.47 8.97 1.11 17.61 3.62 25.74 7.62 3.56 1.75 6.98 3.78 10.22 6.08 1.58 1.12 3.12 2.31 4.62 3.55.17.15.35.29.52.44.02.02.03.02.04.04.04.03.06.06.12.11.34.3.68.6 1.01.91.71.65 1.41 1.31 2.09 1.98 2.72 2.68 5.23 5.56 7.52 8.61.57.76 1.12 1.53 1.67 2.31.25.37.51.74.75 1.11.05.07.1.17.16.27.04.05.11.13.2.27a79.93 79.93 0 0 1 2.87 4.91 82.775 82.775 0 0 1 3.57 7.55c.02.05.05.13.09.22.03.08.06.15.07.17.18.47.36.94.53 1.41.65 1.78 1.23 3.59 1.76 5.41.25.86.48 1.72.7 2.59l.24.99.15.7c.38 1.81.7 3.63.96 5.45.13.94.25 1.89.35 2.84 0 .06.02.2.04.36.02.31.07.89.08 1.06.13 1.91.19 3.82.19 5.73 0 .87-.02 1.73-.05 2.6v.19c-.03.51-.06 1.01-.1 1.52-.14 1.92-.35 3.83-.63 5.73-.05.36-.11.72-.17 1.08l-.09.48a77.3 77.3 0 0 1-2.58 9.53c-.02.08-.05.16-.08.23v.02c-.06.16-.12.32-.17.49.03-.11.06-.18.09-.27-.33.88-.66 1.75-1.02 2.62-1.83 4.46-4.05 8.78-6.44 12.96-.58 1.01-1.17 2.02-1.77 3.02-.29.49-.58.98-.88 1.46-.03.05-.06.1-.09.14-.19.31-.38.62-.58.93-1.31 2.11-2.64 4.21-3.96 6.31-5.63 8.96-12.02 18.43-14.15 28.98-.75 3.71-1.09 7.62-.53 11.39-.43-2.87.02.4.09.82.04.27.1.53.16.79.22 1.02.45 2.05.77 3.04.05.17.12.34.19.51.45 1.22 1.05 2.36 1.56 3.55.36.84 1.39 1.87 2.38 1.85 1.05-.03 1.9-1.11 2.29-1.96 1.11-2.45 1.06-5.18.3-7.69-.08-.35-.16-.71-.25-1.06-.03-.1-.05-.18-.06-.25 0-.07-.01-.14-.02-.2-.02-.45-.05-.9-.06-1.34v-.23c0-.07.02-.16.03-.27.06-.56.13-1.11.23-1.66l.06-.36c0-.03.01-.06.02-.1.31-1.28.66-2.54 1.06-3.79.02-.06.03-.12.05-.17.05-.12.11-.24.14-.32.21-.55.44-1.09.67-1.63.52-1.2 1.09-2.38 1.68-3.55 1.12-2.22 2.32-4.4 3.56-6.56.62-1.08 1.26-2.15 1.9-3.22.34-.57.68-1.13 1.02-1.69.15-.25.31-.5.46-.75.02-.03.03-.04.04-.07 0-.01 0-.01.02-.03 1.35-2.18 2.71-4.37 4.05-6.56 2.81-4.58 5.58-9.18 7.98-13.98 8.09-16.18 10.7-35.12 8.75-53ZM303.9 408.13v-.02.02Zm.08 1.06c0 .18-.04.42-.12.42.02 0 .07-.2.12-.42Zm-.05-1c-.02-.07-.04-.14-.05-.21.02-.03.06.04.07.24 0 0-.01-.02-.02-.03Zm3.07 15.32c-.02-.24-.04-.39-.05-.48.04.19.08.4.05.48Zm6.68 8.73c.08.19.15.39 0 0Zm-.74-2.03s-.01-.06-.03-.15c.02.08.04.15.03.15Zm-.05-.21c-.21-.67-.08-.28 0 0Zm144.05 13.42c-.06-.04-.09-.19-.11-.37.04.18.09.36.11.37Z" class="cls-2"/><path d="M306.88 422.7c0 .03.01.05.02.07 0-.02 0-.04-.01-.05ZM300.29 382.32c-.03.14-.07.27-.11.41v.03c.14-.44.15-.51.11-.43ZM478.79 375.44c.03-.07.06-.14.08-.21.02-.05.04-.1.05-.16.01-.03.02-.06.03-.1.09-.28.12-.44-.17.47ZM471.01 314.48c-.06-.06-.13-.17-.2-.28-.14-.15-.07.06.2.28ZM300.18 383.25l.03.1c.03.09.06.17.09.24v.02c-.07-.25-.11-.36-.12-.36ZM430.57 383.81c-3.66-.03-8.06 1.12-10.36 4.14-.51.68-.73 3.25.53 3.34 1.32.09 2.72-.34 4.01-.65 1.46-.35 2.97-.51 4.47-.46 2.71.09 5.27.99 7.5 2.52 1.78 1.22 3.23 3.08 3.62 4.95.23 1.06.21 2.23.12 3.11l-.09.73c-.01.11-.02.19-.03.26 0 .03-.02.07-.03.14-.13.67-.3 1.33-.5 1.97-1.36 4.45-4.68 8.73-8.83 11.06-2.19 1.23-4.67 1.96-6.72 3.44-2.26 1.63-3.26 3.82-4.4 6.26-.56 1.21-1.19 2.21-2.43 2.81-1.22.6-2.72.64-4.04.37-1.42-.28-2.75-1.04-3.93-1.87-1.35-.96-2.4-2.24-3.94-2.91-2.13-.92-1.9 4.02-1.32 4.93 3.12 4.9 11.38 9.48 16.2 4.07 1.89-2.12 2.13-5.3 4.25-7.21 2.14-1.93 5.16-2.64 7.61-4.08 5.15-3.01 8.83-7.69 10.71-13.33 2.14-6.44 2.01-15.09-3.33-19.98-2.54-2.32-5.64-3.58-9.1-3.61ZM351.37 373.23c-3.17 3.3-8.08 4.99-12.54 3.51-2.12-.7-3.98-1.91-5.42-3.62-1.34-1.59-2.02-3.52-2.91-5.36-.41-.85-.92.08-1 .56-.86 5.39 3.54 11.29 8.5 13.07 5.1 1.83 11.35.17 14.64-4.21.64-.85.66-2.18.34-3.16-.24-.74-.88-1.54-1.6-.79ZM309.9 189.17c.03-.31.07-.63.1-.94.12-1.13.36-2.35.57-3.56.06-.37-.14-2.25-.93-1.77-2.45 1.51-2.66 5.57-2.51 8.15.18 3.19 1.11 6.38 3.03 8.98 3.22 4.37 9.55 6.62 14.69 4.61.96-.38.99-2.28.92-3.06-.06-.62-.43-2.55-1.42-2.36-4.36.83-8.99.03-12.08-3.39-.71-.79-1.19-1.56-1.67-2.51-.21-.41-.03 0-.17-.39-.11-.29-.2-.58-.29-.88-.03-.09-.05-.19-.08-.29 0-.04-.02-.1-.04-.2-.04-.26-.09-.52-.13-.79 0-.07-.02-.1-.02-.15v-.81c0-.01.03-.55.04-.64Z" class="cls-2"/></svg>