<svg width="20" height="20" viewBox="0 0 20 20" fill="none" xmlns="http://www.w3.org/2000/svg">
<path d="M14.2 20H5.8C4 20 3 20 2.2 19.6C1.4 19.2 0.8 18.6 0.5 17.9C0 17 0 16 0 14.2V5.8C0 4 8.9407e-08 3 0.4 2.2C0.8 1.4 1.4 0.8 2.1 0.5C3 0 4 0 5.8 0H8C8.6 0 9 0.4 9 1C9 1.6 8.6 2 8 2H5.8C4.3 2 3.5 2 3.1 2.2C2.7 2.4 2.4 2.7 2.2 3.1C2 3.5 2 4.3 2 5.8V14.2C2 15.7 2 16.5 2.2 16.9C2.4 17.3 2.7 17.6 3.1 17.8C3.5 18 4.3 18 5.8 18H14.2C15.7 18 16.5 18 16.9 17.8C17.3 17.6 17.6 17.3 17.8 16.9C18 16.5 18 15.7 18 14.2V12C18 11.4 18.4 11 19 11C19.6 11 20 11.4 20 12V14.2C20 16 20 17 19.6 17.8C19.2 18.6 18.6 19.2 17.9 19.5C17 20 16 20 14.2 20ZM10 11C9.7 11 9.5 10.9 9.3 10.7C8.9 10.3 8.9 9.7 9.3 9.3L16.6 2H13C12.4 2 12 1.6 12 1C12 0.4 12.4 0 13 0H19C19.1 0 19.3 -9.68575e-08 19.4 0.0999999C19.5 0.0999999 19.6 0.2 19.7 0.3C19.8 0.4 19.9 0.5 19.9 0.6C20 0.7 20 0.9 20 1V7C20 7.6 19.6 8 19 8C18.4 8 18 7.6 18 7V3.4L10.7 10.7C10.5 10.9 10.3 11 10 11Z" fill="#606073"/>
</svg>
