<svg width="17" height="15" viewBox="0 0 17 15" fill="none" xmlns="http://www.w3.org/2000/svg">
<path d="M15.8929 3.78695L8.83929 0.0833513C8.6275 -0.0277838 8.3725 -0.0277838 8.16071 0.0833513L1.10783 3.78695C0.424292 4.1449 0 4.83284 0 5.58283V12.9546C0 14.0823 0.953417 15 2.125 15H14.875C16.0466 15 17 14.0823 17 12.9546V5.58283C17 4.83284 16.5757 4.1449 15.8929 3.78695ZM1.78571 4.9842L8.5 1.45856L15.2143 4.98352C15.4417 5.10352 15.5833 5.33261 15.5833 5.58283V6.43442L8.91508 9.78688C8.65938 9.91438 8.34062 9.91438 8.08704 9.78824L1.41667 6.43442V5.58283C1.41667 5.33261 1.55833 5.10352 1.78571 4.9842Z" fill="#295331"/>
</svg>
